<svg xmlns="http://www.w3.org/2000/svg" width="571" height="650" viewBox="0 0 456.8 520" preserveAspectRatio="xMidYMid meet" >
<path fill="#FFFFFF" d="M266.486.92c-1.161.008-2.134.387-2.878 1.131-.7.7-1.2 1.9-1.2 2.8 0 2.8-2.2 4-7.1 4-3.8 0-5.1.5-6.3 2.2-3.1 4.5-1.8 8.7 3.7 12.1 1.9 1.3 2.7 2.6 2.7 4.6 0 2.1 1.1 3.9 3.9 6.4 3.5 3.1 4.3 3.4 7.4 2.8 4.8-1.1 6.8.2 6 4.1-.7 3.5 1.4 5.8 5.3 5.8 1.2 0 3.4 1 4.8 2.1 2.5 1.9 3.6 2.1 9.8 1.5s7-.4 6.4 1c-1 2.6 1.1 5.1 4.9 5.8 2.9.6 4.2 1.6 6.3 5.1 2.1 3.6 3.8 4.9 9.4 7.4 6.1 2.7 9 5.2 7.5 6.7-.2.3-2.1-.5-4.1-1.7-3.4-2-3.8-2-6.1-.5-1.3.9-3.8 3.6-5.5 6.1s-3.3 4.5-3.6 4.5c-.4 0-16.6-8-17.2-8.5-.1-.1.7-3.2 1.8-6.8 2.9-9.3 2.5-9.8-11.4-14.1-6.3-2-12.1-3.6-13-3.6-2 0-3.9 3.1-6.1 9.7-1.8 5.8-1.6 5.7-10.1 4.3-11.4-2-10.4-1.2-10.4-8.9 0-9.9-.3-10.1-15.5-10.1s-15.5.2-15.5 10.1c0 6.3-.2 6.9-2.2 7.4-1.3.3-6.4 1.3-11.5 2.4l-9.1 1.8-2.6-6.7c-1.9-4.8-3.3-7-4.8-7.3-1.2-.4-6.7 1.3-13.5 4-14 5.6-14.5 6.3-10.9 15.3 1.4 3.5 2.5 6.4 2.3 6.5-1.2.9-15.6 8.5-16 8.5-.3 0-2.2-2.3-4.2-5.1s-4.5-5.4-5.6-5.6c-3.2-.9-1.7-2.6 5.7-6.4 15.1-7.8 43.3-23.5 50.6-28.1 4.3-2.8 9.6-7 11.8-9.5 3.5-4 4-5.2 4-9.3 0-5.1-.9-6-5.6-6-2.4 0-2.5-.1-1.8-5.8.5-4.7.3-6-1.1-7.2-4.7-3.9-21.9-1.3-36.4 5.5-14.6 6.9-31 22.9-46.4 45.2-11 15.9-14.4 19.6-9.8 10.8 4.4-8.5 9.3-25.7 8.9-31.4-.3-3.9-.6-4.6-2.6-4.9-6.2-.9-19.8 9.4-26.8 20.4-3.3 5.1-13.3 28.1-21.1 48.4-1.3 3.6-2.6 6.7-2.9 6.9-.2.2-.3-3.2-.2-7.5.2-9.9-1.7-14.4-6.1-14.4-4 0-7.3 2.9-13.6 12.4-14.9 22.5-23 51-24.2 85.1-1 28.1 3.8 45.5 16.7 61.6 1.4 1.6 2.5 5.1 3.1 10 1.2 8.3 6.9 28 9.8 33.7 1.1 2.1 4.2 7.5 7 12.1 2.8 4.7 5.3 10.1 5.6 12.4.8 5.6.3 13.2-1 13.2-.5 0-1.9-3.8-3.1-8.5s-5.5-15.9-9.6-25l-12.8-28.4c-5.9-13.1-11.8-22.9-14.9-24.5-7.6-4.1-14.1 4.2-14.1 18.1 0 15.4 4.2 34.3 10.2 46.3 7.1 14 30 42.6 43.2 53.9 3.2 2.6 7.6 7.1 9.8 10 4.5 5.7 7.1 7.5 10.9 7.6 3.7 0 7.3 3.2 12.8 11.4 5.9 8.6 10.4 12 24.5 18.2 8 3.5 12.7 6.3 18.2 11 4.1 3.5 10.3 8.3 13.7 10.6l6.2 4.2-5 1.3c-6.5 1.6-22.7 4-33.7 4.9-10.2.7-9.2 1.2-24-10.8-9.2-7.4-9.7-8-10.4-12.5-1-6.6-1-14.5 0-22.5.9-6.7.8-6.8-2.1-9.5-4.6-4.3-10.6-7.3-12.3-6.3-.9.6-1.7 3.2-2 6.7l-.5 5.8-15.2.5c-12.3.5-15.6.9-16.9 2.2-1.1 1.1-1.9 4.5-2.5 10.7-1 10.8-2.2 15.9-5.5 22.3-3 5.8-3 9.9-.3 15.6 3.2 6.5 11.1 12.5 31.2 23.4 6.2 3.3 17.4 10.7 24.9 16.4 16.6 12.5 20.6 14 33.7 13 11.3-.9 40.1-5.1 48.7-7.1 3.7-.8 6.9-1.4 7.1-1.1 1 1-17.5 12.7-21 13.3-4.8.7-7.2 3.9-6.2 8.3.5 2.4 1.3 3.2 3.6 3.7 1.8.3 4.1 2 5.5 3.8 3.2 4.2 8 6.5 13.7 6.5 6 0 10.2-1.6 11.8-4.6.7-1.4 3-3.4 4.9-4.4 4.5-2.3 5.6-3.6 7.2-8.5.9-2.6 2.5-4.7 4.8-6.2 1.9-1.2 4.2-2.9 5.1-3.8.9-.8 2.3-1.5 3.2-1.5 1.7 0 5.7-4.5 5.7-6.5 0-1.3 12.2-11.5 13.7-11.5.6 0 4.4 1.6 8.6 3.5s8.6 3.5 9.9 3.5c1.4 0 4.6-2.2 8.4-6l6.2-5.9 2.6 3.7c1.4 2 6 6.6 10.3 10.2 4.3 3.5 11 9.6 14.8 13.5 3.9 4 8.4 7.9 10.2 8.8 1.7.9 4.1 3 5.3 4.7 2.8 3.9 6.9 6 11.7 6 4.5 0 25-9.6 25.8-12.1 1-3-.7-4.8-6-6.4-5.2-1.5-22.5-12.1-22.5-13.7 0-.5 1.5-.7 3.3-.4 4.5.8 28.6 3.4 37.7 4.1 9.9.8 24.4-.9 32.5-3.9 8.6-3.1 18.5-9.2 36.9-22.6 19.3-14 26-20 30.7-27.3 5.3-8.2 5.2-10.7-1.7-27.5-3.9-9.7-5.4-14.5-5-16.5 1.2-5.9-7.7-9.3-21-8.1-5 .5-8.3.3-10.4-.6-2.8-1.1-3-1.6-3-6.1v-4.9h-4.4c-7.9 0-14.2 7.7-11.8 14.4 1.3 3.4 1.4 12.6.3 23.8l-.6 6.6-14 10.2-14 10.1-15.5-.6c-21.1-.8-25.6-1.4-28.6-3.7-3.2-2.5-1.9-4.3 3.6-5.1 2.4-.3 5.5-1.8 8.2-4 8.9-7.3 19.8-14.5 22.7-15.2 3.5-.7 7.6-5.2 11.7-12.9 1.5-2.8 5.7-8.6 9.3-12.9 6.6-7.8 9.8-9.7 16-9.7 1.4 0 5.4-1.5 9-3.4 3.6-1.8 9.3-4.1 12.5-5 3.6-1.1 7.1-2.9 8.8-4.7 2.6-2.5 2.9-3.4 2.3-6.7-.6-3.6-.4-3.9 4.5-7.5 5.8-4.3 13.5-14.3 14.5-18.6.4-1.9 0-4.1-1-6.1-1.6-3.1-1.6-3.1 2.9-9.9 6.1-9.1 6.6-10.9 7.3-23 .5-8.9.9-10.7 2.9-12.8 3.2-3.5 3.9-6.2 2.1-8.1-1.4-1.3-1.3-2 1.4-6.7 3.5-6.3 3.7-9.5.5-13.2-2.2-2.6-2.3-3-1-5.6 1.5-2.8.9-7.4-1.8-13.2-2.4-5.3-10.6-5.3-18.5.1-3.8 2.5-6.3 2.8-7 .7-.2-.6.3-1.7 1.2-2.5 4.6-3.7 5.5-5.1 6.1-8.9.4-2.2 1.5-4.8 2.4-5.7 1.2-1.2 1.9-3.7 2.2-8.4.3-5.6.9-7.4 3.6-11.2 3.7-5.1 4.1-9.4 1.2-12.1-2.4-2.2-2.5-3.8-.4-7 3.4-5.1 2.7-19.1-1.2-23-.8-.8-2.8-1.5-4.4-1.5-3.6 0-4.3-1.1-3-4.5.8-2.1.7-4.3-.5-8.7-.8-3.3-1.5-7.5-1.5-9.4 0-4.9-3.9-8.8-8-7.9l-3 .7.6-5.9c.5-5.3.3-6.3-2.8-11.3-2.6-4.2-4-5.6-6.3-6-2.1-.4-3.4-1.5-4.5-3.6-1.7-3.6-10.4-11.4-12.7-11.4-.8 0-2.6.9-4 2s-2.9 1.8-3.3 1.5-.9-2.9-1.2-5.8c-.5-6.7-6.5-21.5-8.9-22.2-1-.3-3.2.1-4.8 1l-3 1.5-1.7-5.7c-2.1-7.5-4.9-12.9-6.9-13.7-2.5-.9-6.1-.7-9 .6-2.2 1-2.9.8-5.3-1.1-1.5-1.2-4.7-3.1-7.1-4.2-3.7-1.8-4.9-1.9-8.5-1-2.4.6-4.2.6-4.4.1s-1.2-2-2.3-3.4c-2.2-2.8-6.6-3.5-8.6-1.5-.8.8-1.8 0-3.7-3-3-4.7-12.8-12.4-18.1-14.1-2.5-.8-3.9-.8-5.5 0-1.6.9-3.3.7-7.8-1-3.1-1.2-7.1-3-8.8-4.1C269.783 1.514 267.98.91 266.486.92zm.959 4.056c1.313-.025 3.462 1.275 7.462 3.875 6.2 4.1 10 4.9 14.9 3 3.9-1.4 14.2 5.9 17.6 12.5 3.3 6.4 5.2 7.5 8.9 5.4 2.1-1.2 3.2-1.4 4-.6 2.3 2.3 1 3.4-4.6 4.1-5 .6-6.4.3-11.2-2.1-4.6-2.3-6.1-3.8-8.6-8.3-1.7-3-3.7-5.5-4.5-5.5-1.4 0-1.4.6-.3 4.7 1.3 4.4-9.4.1-14.9-6-2.1-2.3-3.8-4.7-3.8-5.2 0-.6-.7-1-1.5-1-1.9 0-1.9 1.3.1 5.2l1.6 3-5.2-.7c-4.2-.6-5.2-.4-4.8.6.2.8 2.3 1.9 4.6 2.4 7 1.7 8.1 4.7 2.2 6-5 1.1-3.6 2.8 1.8 2.1 11.6-1.6 13.9-1.7 17.7-.4 5.2 1.7 5.1 3.7-.3 6.5-2.4 1.2-4.3 2.4-4.3 2.7-.1 2.3 1.4 2.3 7.4.1 3.7-1.4 7.8-2.5 9-2.5 3.4 0 6.7 2.8 8.8 7.4 2.6 5.7 2.4 8.4-.6 9.8-3.3 1.5-4.8.1-4.9-4.4-.1-3.7 1.1-3.4-12.1-2.6-3.1.2-6.8-.4-9.7-1.5-4.2-1.7-4.8-2.2-4.8-4.8 0-5.8-1.4-6.9-8.3-6.9-7.3 0-8.7-1-8.7-6.2 0-3.4-.4-4-4-5.8-6.5-3.3-6.5-7.1 0-7.5 7.9-.4 7.9-.4 8.6-3.3.65-2.7 1.125-4.05 2.438-4.075zm-80.091 2.992c.911-.004 1.628.183 2.753.483 3.3.9 3.5 3 .5 6.5-1.8 2.2-7.3 5.4-17 10-14.8 7.1-27 14.5-35.7 21.7-7.6 6.4-8.8 4.9-1.5-1.9 8.6-7.9 22.1-16.9 34.5-22.9 15.7-7.6 17.8-10 4.9-5.6-20.5 6.9-43.5 23.8-54.6 40-4.6 6.7-10.6 13.6-11.9 13.6-.4 0 1.8-3.7 4.9-8.2 6.5-9.3 21.4-26.1 30.5-34.3 7.3-6.7 22.5-14.5 33.7-17.4 5.375-1.437 7.429-1.976 8.947-1.983zm4.853 14.883c3 0 4.4.5 4.9 1.7 1.8 4.7-5.2 10.3-30.7 24.7-10.2 5.7-20.6 11.8-23.2 13.5-7.6 4.9-9.5 3.7-3.1-1.9 3.9-3.5 5.3-4.4 29.8-19.5 8.8-5.4 16.7-10.4 17.5-11.2 1.2-1.1 1.1-1.3-.7-1.3-4.7 0-29.3 14.1-46.2 26.5-3.4 2.5-6.1 3.2-6.1 1.7 0-.4 1.9-2.6 4.3-4.9 10.7-10.4 45.2-29.3 53.5-29.3zm141.1 11c2.4.1 2.5.1.6 1.2-3.2 1.7-4.5 3.9-4.5 7.4 0 4.3-.9 4.7-5.3 2.4-7.1-3.8-8.9-1.2-1.9 2.8 4.6 2.5 9.8 7.9 8.8 8.9-.4.5-2.4.8-4.4.8-1.9 0-3.7.6-3.9 1.2-.3.8.5 1.3 2.1 1.3 3.1 0 3.3 1 .7 4.1-1.7 2.1-2.1 2.2-5.9 1.1-2.3-.7-4.8-2.2-5.7-3.5-2-2.8-2-6.7 0-6.7.9 0 2-1.1 2.6-2.4.9-1.9.7-3.3-1-7.1-2.9-6.6-1.8-7.9 6-7 5.4.6 5.8.5 7.4-1.9 1.2-1.7 2.6-2.6 4.4-2.6zm-227.525 3.611c.425.011.772.136 1.025.389.5.5.2 3.9-.8 8-2.3 10.1-8.1 21.9-17.8 36.2-19.8 28.8-36.2 63.8-29.9 63.8.5 0 5.3-8.5 10.6-18.9 5.4-10.5 10.9-20.2 12.2-21.8l2.4-2.8-.6 4.4c-.8 6.1-6.4 18.7-13.5 30.5-5.8 9.7-7.4 14.6-4.7 14.6 2.4 0 4.2-3 17.7-30 15.4-30.8 24-44.1 34.9-54 6.8-6.3 7.7-6.8 8.9-5.3 1.9 2.7 1.4 9.8-1.3 17.9-3.9 11.6-6.8 16.3-14.2 23.5-7.6 7.4-16.1 14.4-16.7 13.8-.7-.7 10.7-18.9 19.1-30.7 8-11.1 10.5-16.4 8.5-18.4-1.2-1.2-10.6 9.7-18.5 21.7-3.2 4.9-10.1 17.4-15.2 27.6-15 30-18.7 35.8-24.9 38.8-2.3 1-4.7 2.5-5.3 3.3-1.2 1.4-7.3 19.3-7.3 21.4 0 2 1.9 2.7 3.6 1.3 1-.8 1.8-.9 2.5-.2 1.6 1.6-.4 4.6-4.4 6.8-3.1 1.6-3.7 2.7-6 10.9-4.2 14.8-6.5 32.6-4.3 32.6s4.4-3.3 5.1-8c1.4-9.1 6.6-22.7 11.9-31.7 7.8-13.2 7.8-13.6 1.9-16.7-1.8-.9-3.3-1.9-3.3-2.1 0-.3 1-2.5 2.3-5 1.6-3.2 3.2-4.8 5.9-5.9 2.6-1.1 4.5-3 6.4-6.3 7.9-13.6 20.6-31.1 25.8-35.6 8.9-7.7 9.8-5.9 5.5 11.5-3.6 14.5-7.9 25-13.7 33.5-3 4.6-5.9 8.3-6.3 8.3-1.5 0 1.7-10.2 8.3-27 5.4-13.3 8-21.2 7.3-21.8-1.5-1.6-14.4 22.5-18 33.8-3.3 10.3-11.6 29.5-16 37-4.7 8.1-9.8 18.6-16.7 34.5-4 9.4-4.3 10.5-4.3 19.5 0 8.2.3 10.1 2.3 13.4 1.3 2.2 2.8 6.4 3.4 9.5.5 3 2 7.6 3.3 10.1 1.2 2.5 2.5 6.3 2.9 8.4s1.5 5 2.4 6.4c1.3 1.9 1.3 2.4.2 2-.7-.2-3.1-2.9-5.3-6-3.1-4.3-4-6.8-4.6-11.6-.4-3.4-1.4-6.9-2.3-7.9-.8-1-2.1-2.9-2.8-4.2-1.7-3.3-4.3-18.5-4.4-26.1l-.1-6.5-4.6-2.2c-5.6-2.6-7.8-6-11.6-17.3-2.7-8.3-2.8-9-2.7-31 0-24.5 1.6-37.3 6.9-55.5 4.6-15.9 15.5-35.3 22.5-40.2 6.8-4.7 6.2 10.4-1.6 42-2.4 9.8-5.5 25.1-6.8 34-1.4 8.9-3.8 22.4-5.5 29.9l-3.1 14.3c0 .3-.4.5-1 .5-1.3 0-1.3-23.3.1-35.8 1.3-12 6.5-42.8 8.4-50.2.8-3 2.2-7.8 3-10.5l1.5-5-2.6 3c-6.5 7.7-9.7 17.6-14.1 43.5-2.4 14.2-2.7 19.3-2.8 37 0 24.1 1.1 29.5 7.5 36.3l3.8 4.1.7-7.9c.6-7.7 3.4-25.4 7.4-47.5 1-5.8 2.9-13 4.1-16 1.7-4.1 2.1-6.8 1.7-10.6-.7-7.1 2.5-22.9 6.1-30.2 4.6-9.3 10.9-19.8 17.7-29.7 3.5-5 9.3-14.6 13-21.5s8-14.5 9.6-16.9c3.4-4.9 3.2-6.2-.6-3.7-4 2.6-8.9 10-16 23.8-5.5 10.8-8.5 15.5-8.5 13.5 0-2.3 9.7-25.3 13-30.8 5.8-9.788 17.266-20.396 21.375-20.289zm233.456.455c1.598.041 3.681.722 6.569 2.034 4.1 1.8 5.1 1.9 8.2.7 3.3-1.2 3.7-1.1 5.5 1 1 1.3 3 6.2 4.4 11 1.5 4.8 3.2 9.3 3.9 10 1.8 1.9 4.3.5 5.5-3 1.6-4.5 3.5-2.3 6.6 7.5 3.2 10.1 4.8 31.7 2.4 31.7-.8 0-2.7-2.7-4.3-6-2.7-5.5-2.9-6.4-2.3-14.4.5-6.6.3-8.5-.8-9-1.8-.6-2.5 1.5-2.5 7.5 0 2.7-.4 4.9-.8 4.9s-3.6-3.2-7-7.1l-6.2-7v-8.2c0-4.5-.3-9.2-.6-10.5-1.2-4.3-2.4-2.1-2.4 4.2 0 3.8-.5 6.8-1.2 7.2-1.1.7-6.1-4.1-10.4-10.1-1.2-1.7-2.5-2.7-2.9-2.3-1.4 1.4 1.8 6.8 8.1 13.9 3.5 4 6.4 7.6 6.4 8.2 0 .9-3.1.7-12-.8-3.3-.6-3.4-.6-1.5 1 1.1.9 4.5 2.3 7.5 3.1 8.1 2.2 11.5 4.2 16.7 9.7 5.5 5.9 4.9 6.7-5.3 6.7-7.5 0-8.6.4-7.7 2.5.3 1 1.8 1.2 5.3.8 5.8-.7 13.7 1.7 17 5.2 1.3 1.4 2.4 4.1 2.7 6.8.4 3.7.1 4.9-1.7 6.7l-2.2 2.2-1.5-2.8c-.7-1.6-4.2-4.8-7.7-7.2-6.1-4.1-9.9-5.2-11.1-3.2-1.6 2.5-12.5-.4-12.5-3.3 0-.7-1.4-3.5-3.1-6.2-3.2-5.1-2.9-6.5 1.7-6.5 3.1 0 6.7-3.2 5.9-5.1-.3-.9-3.6-3.1-7.3-4.8-4.8-2.2-7.2-4-8.5-6.3l-1.9-3.3 3.8-3.1c3.2-2.7 3.6-3.5 2.9-6-1.6-6.6-1.7-12.2-.1-15.3 1.125-2.081 2.377-3.087 4.431-3.034zm-117.72 14.08c1.27-.014 2.789.005 4.589.055l9.8.3.3 7.2c.2 4.4.8 7.5 1.6 8.2 1.7 1.5 15.4 4.1 21.1 4.1 5 0 5.6-.7 8-8 1-3 1.9-5.7 2.1-5.8.3-.5 17.7 4.8 18.6 5.7.4.3-.1 3.5-1.2 6.9-1.3 4.3-1.7 6.9-1.1 8.1 1.3 2.4 22.1 12.2 24.6 11.5 1.1-.3 3.6-3 5.5-6 3.8-5.9 5.7-6.5 5.2-1.6-.3 3 0 3.3 6.2 6.2 3.6 1.7 6.6 3.7 6.6 4.3 0 .7-1.1 2.9-2.5 4.9s-2.5 4.5-2.5 5.6c0 2.2 16.1 18.2 18.4 18.2 2.1 0 2 1.2-.2 4.1-3.3 4.3-3.4 6-.6 11.7l2.7 5.4-2.2 3.8c-4.9 8.8-2 12.6 16.8 22 6.2 3.1 14.8 12 17.6 18.2 1.3 2.9 2.6 8.1 3 11.5.8 7.5 2.6 10 9.9 14.2 6.9 3.9 9.8 7.8 9.4 12.8l-.3 3.8-6.8.5c-4.5.3-7.1 1-7.7 2-1.4 2.2-3.7 13.5-4.5 21.5-.8 8.3-.2 9.1 8.3 12.1 5.1 1.8 5.3 2 4.8 4.9-1.2 5.6-2.7 5.9-7.5 1.5-2.3-2.2-5.1-4-6.1-4-1.8 0-1.9-.7-1.3-11.4.7-12.5-.4-19-3.9-23.9-1.9-2.7-2.5-2.9-6.4-2.3-2.4.3-4.6.1-4.9-.4-.3-.6-2.4-1-4.5-1-3.1 0-4 .4-4.7 2.2-.5 1.5-1-2.8-1.3-11.9-.3-7.8-.8-14.5-1.2-14.9-.6-.6-46.1 16.3-65.5 24.3-1.8.7-3.3 1.1-3.3.9 0-.3 14.6-11.2 32.5-24.3l32.5-23.8-62.2-1 27-8.9 27.1-9-2.2-3.8c-3.4-6.1-13.9-18.9-20.9-25.3-18-16.7-38.3-28.2-60.3-34.1-4.9-1.3-9.5-2.4-10-2.4-.7 0-.4 11.1.7 32.7 2.7 50.2 3.6 49.9-11.7 5.3l-13.5-38c-.3 0-6.4 17.1-13.5 38-10.2 29.6-13.1 37.1-13.2 34.2-.2-2 .5-19 1.5-37.7l1.5-34.4c-.2-.3-6.7 1.7-14.6 4.2-26.9 8.9-44.5 19.3-59.1 34.8-6.3 6.6-17.4 20.8-19.6 25-.9 1.6 1.6 2.7 27.2 11.1l28.3 9.3-63.5 1 33 23.9 32.7 24.3c-.2.1-15.7-4.9-34.6-11.2-22.9-7.6-34.3-11-34.6-10.2-.2.7-.5 4.2-.7 7.9-.3 5.8-.7 7-3 8.7-1.6 1.3-4 5.6-6.3 11.3-2 5.1-6.9 15.6-10.9 23.3s-8.3 16.6-9.6 19.7c-1.3 3.2-2.7 5.8-3 5.8-.6 0-5-11.7-5-13.2 0-.3 1.7-1.2 3.8-1.8 8.4-2.7 10.2-4 10.2-7.4 0-4.4-2.8-18.3-4.3-21.5-1.1-2.4-1.8-2.6-8.5-2.9-8.2-.3-8.2-.4-5.7-8.9 2-6.7 4.7-9.9 9-10.7 4.2-.8 4.7-1.9 6.5-12.6 1.6-10.2 5.4-16.5 16.6-28.3 13.1-13.6 18.9-26.1 23-49.5l1.8-10.2 3.9-2.3c2.2-1.2 4.9-3.4 6.1-5 1.8-2.4 1.9-3.1.8-6.2-1.2-3.1-1.1-3.8 1.3-7.5 1.4-2.2 3.3-6.2 4.3-8.8s2.3-4.7 3-4.7 2.9 2.2 5 5c2.2 2.9 4.7 5.1 6 5.3 2.7.4 21.7-10 22.6-12.4.3-.8-.6-4.5-2-8.1-1.4-3.5-2.4-6.6-2.2-6.7.1-.2 4.4-1.9 9.3-3.8l9-3.6 2.9 6.4c1.9 4.3 3.6 6.6 5 7 2.2.5 18.2-2.5 25.1-4.8l4-1.3.3-6.5c.1-3.6.5-7.1.7-7.8.225-.675 1.8-1.012 5.611-1.055zm110.928 24.837c.62 0 1.286.267 2.261.717 1.5.7 2.7 1.8 2.7 2.3 0 1.1-7.3 5-9.4 5-3 0-2.8-2.3.5-5.4 2-1.875 2.906-2.617 3.939-2.617zm-232.812.902c.509.009.773.478.773 1.416 0 1.5-6.3 12-9.8 16.3l-2.3 2.9.4-4.6c.3-3.3 1.4-5.8 4.2-9.5 3.3-4.331 5.607-6.536 6.727-6.516zm295.398 4.228c1.65.113 3.325 1.337 5.175 3.688 1.7 2.1 3.3 5.5 3.7 7.6.9 4.4 2.6 5.4 5.9 3.2 2.3-1.5 2.5-1.4 3.9 1.7 2.6 5.3 3.1 8.2 3.6 19.4.1 3.7 2.2 4.3 5.8 1.8 3.3-2.3 4.9.4 4.5 8.2-.1 4 .3 7.3 1.1 9 1.2 2.3 1.2 3.5 0 8.7-2 8.8-.1 11.3 4.7 6.1 4.1-4.4 4.8-3.7 6.5 6.5.7 4.1-.6 8.1-4 12.2-3.5 4.1-3.3 6.7.5 7.4 1.9.4 3 1.3 3 2.4 0 .9-1.3 4.2-3 7.3-2.2 4.1-3 7-3 10.7 0 3.8-.4 5-1.5 5-1.2 0-1.5-1.4-1.5-6.8 0-3.8-.7-9.1-1.5-11.8-2.1-7-1.9-9.4 1.5-15.7 3.2-6 3.6-8.2 2-9.2-.6-.3-1.9 1.4-3 3.9-1 2.5-2.3 4.6-2.7 4.6-1-.1-8.3-21.8-8.3-24.7 0-1.2.9-4.5 2-7.3s2-6.3 1.9-7.8c0-2.3-.4-1.9-2.7 2.7-1.5 3-3.1 5.4-3.7 5.4-2.4-.2-4.4-9.8-4.5-21.3 0-6.3-.5-12.2-1-13-.7-1.1-1-.5-1 2.5 0 2.2-.5 5.7-1.1 7.9-.9 3.2-1.3 3.6-2.3 2.5-2.1-2.2-6.6-14.5-7.4-20.1-1-6.9-3.2-7.6-3.2-1 0 4.9 2.3 13.1 5.4 19 2 3.8.7 4.2-4.2 1.2-1.8-1.1-4-2-4.8-2-2.5 0 0 2.6 6.1 6.6 7 4.5 9 6.9 12.5 15.3 4.4 10.8 3.7 13.8-2.3 9.1-3-2.4-4.7-2.6-4.7-.5 0 .8 2.4 3 5.3 4.9 8.4 5.4 10.6 8.4 12.7 17.4 1.7 7.2.6 8.1-5.8 4.8-5.9-3-6.2-3.1-6.2-1.2 0 .7 2.7 3.2 6.1 5.6 7.1 5 8.2 7.1 10.5 20.2 3.3 19.7 3.1 21.8-3.2 24.4-3.4 1.4-3.5 1.5-2.8 6.2.5 3.7.2 5.5-1.4 8.2-1.5 2.7-2.1 6.2-2.6 15.5-.3 6.6-1.3 14.8-2.2 18.3-1.3 5-1.3 6.6-.3 7.8 2.2 2.7 4.2 1.1 5.9-4.6 1.4-5 2-5.8 6.5-8.2 3.5-1.9 5.3-2.4 6.2-1.7 1.4 1.2 4.1 9.1 4.5 13.4.2 2.5.7 3 2.8 2.9 3-.2 4 1.1 4 5.1 0 5.9-3 13.8-7.9 21.2-6.2 9.1-6.9 11.4-4.7 15.9 1.5 3.3 1.5 3.7-.4 7.4-1.1 2.1-3.8 5.4-6.1 7.2-11.5 9.2-12.1 10-11.5 13.6.7 4.7-.8 7.2-4.4 7.2-1.7 0-3-.1-3-.3 0-.1 1.3-3.8 3-8.1 3.1-8.3 6.8-13.1 13-16.8 5.9-3.5 8.1-7.4 3.6-6.2-4.2 1-4.6-.2-2.5-7.9 3-11 3.9-12.8 9.6-19 4.7-5.1 6.8-9.7 4.6-9.7-.5 0-2.9 2.3-5.5 5.2-4.3 4.8-4.7 5.1-4.8 2.9 0-1.4 1-7.3 2.1-13.2 1.2-5.9 1.9-11.5 1.5-12.5-.7-1.8-.8-1.8-2.2 0-.8 1.1-1.4 3.2-1.4 4.8 0 2.2-.5 2.8-2.1 2.8-1.9 0-2 .4-1.4 4 .9 5.2-1.4 18.4-2.9 17.1-.6-.5-2.4-3.5-4.1-6.5-4.4-8.1-7.3-7.1-4.1 1.4.7 1.9 2.5 5.3 3.9 7.4 3 4.4 3.3 7.7 1.3 15.1-1.9 7.1-6.4 16.7-7.4 16.1-.5-.3-1.2-2-1.6-3.8-.9-4.8-2.1-2.3-3.4 7.2-1.6 11.5-6.5 21.6-12.9 26.5-4.4 3.4-4.9 3.5-10.3 2.9l-5.7-.6-5.9 6.6c-3.2 3.6-6.8 8.5-7.9 10.8-1.5 3.3-3.1 4.8-6.7 6.6-5.1 2.4-5.5 3.1-3.7 6.4 1.5 2.8.6 3.2-3.8 1.7-2.1-.7-4-1.2-4.3-1.1s-.7 1.6-1 3.4c-.4 2.8-1.8 4.2-9.5 9.6l-11.2 7.8c-3.1 2.2-4.9 1.2-5.7-2.9-1.4-7.5-9.8-10.7-17.9-6.8-3.6 1.8-4.8 3.1-6.5 7-2.7 6.6-6 8.6-13.8 8.6-3.5 0-6.6-.4-7-.8-1.5-1.5 6-7.7 12.5-10.2 3.6-1.5 10.9-5.1 16.1-8 11-6.3 14.4-7.7 16.5-6.9 1.9.8 1.9 4.1 0 7.4-3.2 5.6-1.6 6.3 4.9 2 2.4-1.7 6.2-3.7 8.3-4.6 7.4-2.9 8.3-3.7 9.4-7.8.6-2.3 3.7-9.1 6.8-15.1 5.2-10 5.9-11.9 6.5-19.4l.8-8.3 2.8.6c2.8.5 3.1.2 6.9-8 2.2-4.7 6-10.9 8.3-13.7 10.6-12.9 24.1-27.6 24.9-27.1 1.9 1.1.8 6.3-2.2 10.5-1.7 2.4-6 7.2-9.4 10.6-7 6.9-23.4 32.9-28.5 45.3-1.8 4.5-4.3 8.3-6.9 10.8-4 3.8-5.5 8.2-2.8 8.2 2.3 0 11.5-6.9 15-11.2 1.9-2.4 5.7-7.7 8.5-11.9s6.3-8.5 7.7-9.5c2.3-1.8 2.5-2.2 1.4-5.2-1.3-3.7-.6-6.4 1.4-5.7 1.4.6 4.7-4.6 6.6-10.5 1.6-4.8 8-11.7 9.2-9.9 1.2 1.9 1.1 3.9-.1 3.9-1.6 0-3.8 5.2-5.6 13-1.3 5.9-2.4 8.1-5.6 11.6-5.1 5.5-5 8.8.2 9.2 2.7.2 4.1-.3 5.8-2.1 2.9-3.1 7.2-14.9 7.2-19.7 0-2.3.8-4.8 2.1-6.4 1.7-2.2 2.1-3.7 1.7-7.8-.5-4.8-.4-5 2.3-6 1.5-.5 3-1.6 3.3-2.4.9-2.2-1.2-5.4-3.4-5.4-1.5 0-2-1-2.5-4.8-.3-2.6-1-5.7-1.5-7-.8-1.8-.6-2.2 1-2.2 1.1 0 2.6-1 3.4-2.3 1.3-1.9 1.3-3 0-8.6-2-8.3-1.3-11.1 2.5-11.1 2.2 0 3.1-.6 4-2.8 1.9-4.9 3-11.5 3.7-23.2.4-7.6 1.1-12.3 2.2-13.9 1.2-2 1.3-2.6.2-2.9-2.1-.7-6-4.9-6-6.4 0-.8.5-.6 1.1.4 1 1.8 4.9 2.5 4.9.9 0-.5-.7-1.4-1.5-2.1-1.2-1-1.4-2.7-.9-7.9.6-6.3.5-6.8-2.2-10.1-1.6-1.8-3.4-5.2-4.1-7.4-3.7-12.9-4.3-15.3-4.3-18.3 0-1.8.4-3.3 1-3.3 1.7 0 3.8 5.3 4.9 13 1.3 8 3.2 12 5.7 12 .8 0 2.4.5 3.5 1.1 1.9 1 2 1.2.4 3.6-2.1 3.1-.7 7.3 2.4 7.3 2.5 0 3.1-1.9 3.1-9.1 0-6.7-.9-8.9-5.3-13.6-2.7-2.9-2.9-3.5-1.9-5.8 1.9-4.2 1.4-5.3-3-7.6-7.2-3.6-16.4-13.7-14.3-15.7.4-.4 2.6-.7 4.8-.7 3.6 0 4.2-.3 4.5-2.2.2-1.6-1-3.5-4.5-6.7l-4.8-4.5v-6.9c0-8.5-1.2-10.2-7.1-10.2-4.4 0-4.4 0-4.4-3.6 0-5.3-2-12.1-4.1-14-2.8-2.5-2.5-7.7.6-10.8 2.1-2.1 2.5-3.4 2.5-8.5 0-4.9.4-6.5 2.6-9 1.75-2.1 3.375-3.1 5.025-2.988zm-58.738 18.025c.563.062 1.363.712 2.713 1.962 1.3 1.3 4.1 2.3 6.8 2.6l4.4.5-.5 3.7c-1.5 8.9-1.1 8.8-8.6 1.3-4.9-4.9-6.6-7.3-6.1-8.5.4-1.1.725-1.625 1.287-1.562zm20.781 4.605c.678-.022 1.45.139 2.331.458 1.6.5 4.5 2.7 6.5 4.9 2.3 2.6 3.5 4.9 3.5 6.8 0 3.7.9 6.1 2.3 6.1.5 0 2.5-1.7 4.3-3.8l3.3-3.7 2.3 2.3c2.2 2.1 2.3 2.9 2.1 13.5-.2 10.9-.2 11.1 1.5 8.7 4.6-6.6 8.4-7.9 10.4-3.5 1.1 2.4.6 9.1-1.8 23.6-.4 2.6 0 5.1 1.5 8.4 2.5 5.6 2.7 9.4.6 12.1-.8 1-1.5 3.6-1.5 5.7 0 3.7.1 3.8 2.9 3.2 4.2-.9 5.4 1.8 4.9 11.4l-.3 7.6h3.5c5.4 0 6.2 1 5.4 6.3-.4 2.6-.7 5.6-.6 6.7.1 2 .1 2-1 0-.6-1.1-4.1-5.4-7.7-9.6s-7.9-10.1-9.6-13.2l-2.9-5.5 1.2-8.6c.7-4.7 1.5-9.3 1.8-10.1.5-1.1.2-1.3-1-.9-.9.3-2.1 2.6-2.7 5s-1.5 4.4-2 4.4-2.1-2.4-3.5-5.2c-2.3-4.6-2.5-5.8-1.6-8.8 2.3-8 6.2-17.5 8.1-20.1 1.5-2 1.7-3 .9-3.5-1.6-1-5.3 3.9-7.8 10.5-2.3 6.2-4.6 10.1-5.9 10.1-1.7 0-3.4-5.9-3.8-14-.5-8-.3-8.9 2.6-15 3-6.4 4.1-11.7 2.1-10.5-.6.4-2.4 3.3-4 6.5s-3.4 6.1-4 6.5c-1.2.8-2.5-2.4-5.5-14.1-2.7-10.3-4.4-14.4-5.8-14.4-1.5 0-.1 8.2 3.3 19.4 1.7 5.5 3 10.3 3 10.8s-1.9-.7-4.2-2.6c-2.3-2-5.1-3.6-6.1-3.6-1.6 0-.4 1.7 5 7.2 7.3 7.6 10.3 12.2 10.3 15.8 0 2.1-.1 2-4.2-.4-4.7-2.7-9.9-3.7-10.5-2-.2.5 2.1 2 5 3.2 3 1.3 6.5 3.4 7.8 4.9l2.4 2.5-2.5-.6c-6.3-1.8-16.7-7.6-17.8-10.1-1.9-4.1-1.5-6.4 1.3-7.5 3.3-1.2 3.2-3.6-.5-9.3-1.6-2.6-3-5.1-3-5.6s1-2.1 2.3-3.7c1.8-2.3 2.3-4.5 2.7-12.1.569-8.937 1.732-12.462 4.669-12.558zm-100.669 1.258c.6 0 5.5 1.6 10.8 3.6 18.7 7 31.3 14.2 43.3 24.7 6.9 6 20 21.3 20.7 24 .1.8-12.8 5.4-34.5 12.5l-35.8 11.5c-.6.1-1.6-10.9-2.6-28.8l-2.3-38.3c-.4-6.2-.3-9.2.4-9.2zm-63.2 1c2.4 0 2.4.1 1.8 8.2-.4 4.6-1.3 21.6-2.2 37.8l-1.7 29.6c-.2.2-71-22.7-71.6-23.2-.2-.2 1.7-3.2 4.2-6.6 5.8-8.1 20.5-22.2 29.4-28 12.6-8.4 33.7-17.7 40.1-17.8zm32.2 15c.3 0 5.9 15.1 12.5 33.5l12 33.5h37.3c20.4 0 37.2.3 37.2.7-.1.5-13.4 10.7-29.6 22.8l-30.4 23.1c-.6.6 3.3 14.4 10.1 36.3 6 19.4 10.8 35.6 10.5 35.8-.3.3-13.4-8.4-29.3-19.3-15.8-10.8-29.5-19.7-30.3-19.8-.8 0-14.7 9.1-30.7 20.1-16.1 11.1-29.3 19.8-29.3 19.3 0-.6 19.8-65.7 21.5-70.8.3-.7-7.7-7.3-19.3-15.9l-31.2-23.2-11.5-8.6 75.9-1 12-33.3c6.6-18.2 12.3-33.2 12.6-33.2zm122.9 92c1.1 0 1.3 2.3.9 13.2-.5 11.3-.9 13.9-2.7 17-1.8 2.9-2 4.1-1.2 5.7 2.8 5.1-6 27.4-17.1 43.8-2.7 4-5.3 7.3-5.7 7.3-.5 0-10.9-13.5-23-30-18.2-24.8-21.8-30.2-20.3-30.7.9-.4 16.6-6.4 34.7-13.5l34.4-12.8zm-244.5 5c.1 0 15.5 4.9 34 10.9l34.4 11.5c.6.7-42.7 65.6-43.8 65.6-.3 0-3.1-4.6-6.2-10.1-4.5-8.1-5.5-10.6-4.8-12.4.5-1.3 1.3-7.3 1.9-13.4 1.1-11.8.6-15.2-2.7-17-1.7-.9-1.8-1.9-1.4-8.9.4-7.4.3-8-1.9-9.6-1.3-.9-3.6-1.6-5.1-1.6-2.1 0-3.1-.7-3.8-2.6-.9-2.4-1.4-12.4-.6-12.4zm340.3 5.1c.7-.1 2.2 1.8 3.4 4 2 4.1 2.1 5.2.4 13.4-.5 2.3-.2 3.5 1.4 4.9 3.1 2.8 2.6 5.9-1.6 10l-3.7 3.6 2.2 2.3c2.9 3.1 2.8 5.1-.4 7.6-3.5 2.7-4.1 2.6-4.7-.7-.2-1.5-1.1-4.1-1.8-5.9-1.2-2.9-1.1-3.3 2-6.8 2.4-2.7 3-4 2.1-4.9-.8-.8-1.5-.7-2.8.2-3.5 2.5-6.1 3.4-7.8 2.8-1.6-.6-1.5-.8.4-2.9 1.1-1.2 3.4-5.9 5.1-10.5s3.6-9.2 4.1-10.3c1.6-2.9-.5-2.3-3.2.9-2.2 2.7-4.4 6.7-6.8 12.7-1.3 3.2-1.5 3-3.5-2.9-.5-1.8-.7-1.8-2.2-.4-1.3 1.4-1.4 2.2-.2 6.6 1.1 4.4 1 5.3-.5 7.6-.9 1.4-2.4 2.6-3.3 2.6-1.4 0-1.5-1.2-1-9.9.6-12 2.2-15.6 7.3-17 2-.6 4.6-1.9 5.8-2.9 2-1.9 6.8-4 9.3-4.1zm-348.1 6.9c.7 0 1.6.6 2.1 1.2 1.2 1.9 1.8 17.6 1.7 41.3-.1 27-3.4 56.5-6.2 56.5-1 0-.4-56.6.8-71.2 1-12.2.7-17.8-1-17.8-.8 0-2.1 6.4-4.5 23.1-2.3 15.5-3.1 45.4-1.5 53.7 1.8 9.5 1.1 12-1.9 6.3-2.1-4-2.3-5.6-2.4-24-.1-15 .3-21.3 1.6-27.1.9-4.1 2.3-12.2 3.2-18 2.4-16.5 4.9-24 8.1-24zm266.962 1.859c.998-.114 2.025.491 3.038 1.841 1 1.5 1.7 1.6 4.2.7 6-2.3 7.2 1.3 7.2 21.4 0 8.6.4 16.3.9 17.1.7 1 2 1.2 5 .7 4.6-.7 4.8-.3 5.3 8.3.3 5.1 2.4 6.6 3.3 2.4.9-4 2-5.8 4-6.1 1.4-.3 1.6.1 1.1 2.5-.3 1.5-.7 5.4-.8 8.5-.2 4.9-.6 5.8-2.4 6.2-1.2.3-4.6 3.3-7.7 6.5-3 3.3-5.8 5.7-6.1 5.4-1.2-1.2-.6-11.1.9-15.3.8-2.3 1.5-5.4 1.5-6.8 0-2.6 0-2.6-2.9.8-3.2 3.8-3.8 3.4-4.3-3-.2-2.4-.9-3.6-2-3.8-2.5-.5-2.4 5.7.2 15 2 7.3 1.9 9-.4 7.3-6.8-5-12.3-8.5-13.3-8.5-3.5 0 0 4.2 9.5 11.4 5.8 4.5 8.2 8.7 6.2 11.1-1.9 2.3-2.8 1.8-5-2.6-1.3-2.5-3.8-5.1-6.8-6.9-9.9-6.1-11.1-7.7-11.4-14.8-.1-2.6.6-4.1 3-6.3 4-3.8 4.5-5.7 4-17.3l-.3-9.5-4.4-4.5c-2.5-2.5-4.2-4.9-3.8-5.2.4-.4 1.3-.1 2.1.5 1 .8 3 1 6 .6 4.3-.7 4.5-.6 5.2 1.9.6 2.5.2 8.4-1.1 15.7-.4 2.1-.2 4.6.4 5.8.9 1.6.8 2.7-.4 5-.8 1.7-1.5 4.8-1.5 7.1 0 3.3.3 4 2 4 1.5 0 2-.7 2-2.4 0-1.4 1-4.1 2.1-6.1 1.8-2.9 2-4.5 1.5-8.5-.4-2.8-.2-5.8.3-6.8.5-.9.7-5.7.4-10.5-.5-8-.8-9-2.9-9.9-1.7-.8-3.6-.7-6.8.2-2.5.7-5.3.9-6.3.5-1.6-.6-1.5-.8.9-2.1 1.6-.8 3.1-2.9 3.8-5.1 1.312-4.062 2.898-6.25 4.562-6.441zm46.019.802c1.5.052 1.594 3.239.619 11.039-.7 5.4-1.2 11.8-1.2 14.3 0 7.9-4.6 13.5-5.2 6.4-.3-3.7-.3-3.7-6.7-5-3.5-.7-6.6-1.6-6.9-1.9s0-4.4.7-9.2c2.1-14.4 1.4-13.3 8.5-13.3 3.8 0 7-.6 8.2-1.4.825-.625 1.481-.956 1.981-.939zm-300.764 5.625c1.051-.044 1.777 1.27 1.983 3.814.2 3.6-1.5 8-3.5 8.7-1.7.5-1.8-9.9-.1-11.6.594-.594 1.139-.894 1.617-.914zM55.165 245c.79-.019 1.669.002 2.644.052l6.1.3 1.8 8.4c1 4.7 1.4 8.8 1 9.2-.9.7-11.9 4.9-13.2 4.9-2.1 0-5.1-8-5.1-13.6 0-7.088 1.225-9.122 6.756-9.252zm-43.853.07c1.499-.032 3.284 1.412 5.197 4.281 4.5 6.7 21.4 43.1 26.9 58 2.9 7.7 7.9 19.5 11.1 26.3 3.2 6.7 5.9 13 5.9 14.1 0 1 1.1 3.5 2.5 5.4l6 9.3c3.4 5.2 3.4 5.5 1 3.6-3.8-3-5.8-5.8-9.8-13.7-1.9-3.9-6.1-11.1-9.2-16-11.6-18.5-27.5-53.5-33.5-74.2-2.2-7.5-4.3-11.3-5.6-10.1-1.3 1.4 1.7 18.2 5.2 28.8 4.3 13.1 16.1 37.2 24.8 50.9 3.7 5.7 6.5 10.6 6.2 10.8-.8.9-8.9-7.3-15.1-15.2-11.4-14.7-18.5-28.5-22.7-44.3-2.5-9.8-3.6-30.8-1.8-35.2.744-1.837 1.737-2.756 2.903-2.781zm266.284 7.748c.046-.021.119.03.212.133.2.2 10.2 13.7 22.1 29.9 12 16.2 22.2 29.4 22.7 29.2 1.2-.3 6.5-6.4 10.6-12.1 5.8-8 11.4-19.1 15.2-30 3.5-9.8 3.8-10.3 5-8.1.7 1.3 1.5 5.2 1.8 8.7l.5 6.3-8.6 7.8.8 8.6c.8 9.6 1.9 11.8 8.8 16.1 2.3 1.5 5 3.8 6 5.1 1.6 2.2 1.6 2.6.2 5.3-.9 1.8-1.2 4.1-.9 6 .8 3.6 0 3.8-4.1 1.1-5-3.3-6.6-2.6-16.9 7.1-11.1 10.5-11.5 11.7-6.1 19.4l3.5 4.9-2.7 2.3c-2.6 2.2-13.7 9.1-15.3 9.6-.4.1-2.6-2.2-4.9-5.1s-4.9-5.6-5.6-5.8c-.8-.3-6.1 1.8-11.9 4.8-12 6-12.3 6.5-8.6 15.7 1.1 2.8 1.6 5.2 1.2 5.5-2.7 1.6-16.7 6.6-17.7 6.2-.6-.2-2-2.6-3-5.3-2.4-6.5-3.2-7.3-7-7.3-3.6 0-22.5 3.7-23.4 4.6-.3.3-.8 3.8-1.1 7.7l-.5 7.2h-20l-.3-7.3c-.3-7.2-.3-7.4-3.5-8.6-5.2-2.1-22.3-4.1-23.9-2.8-.8.6-2.2 3.5-3.2 6.4s-2.2 5.6-2.5 6.1c-.6.6-17.6-4.5-18.8-5.6-.1-.2.4-2.4 1.3-5 .8-2.5 1.4-6 1.2-7.9-.3-3.1-.9-3.6-10.8-8.5-5.8-2.9-11.3-5.3-12.2-5.3-1 0-3.6 2.4-5.9 5.2-2.3 2.9-4.7 5.3-5.4 5.2-2.4-.2-15.5-10.6-14.8-11.7.4-.7 2.2-3.4 4-6.1 1.8-2.6 3.3-5.3 3.3-5.9 0-2-17.3-17.7-19.6-17.7-1.2 0-3.3 1-4.8 2.1-1.5 1.2-3 1.9-3.3 1.5-.9-.9 5.5-20.2 9.8-29.4l3.9-8.4 6.9 10.4c7.5 11.2 9.7 13.7 11 12.2.5-.5 10.1-14.7 21.5-31.7l21.1-30.7c.3 0 .2.6 0 1.2-3.2 8.3-21.9 71.6-21.1 71.1l60.6-40.8c1.7-1 2.3-1.7-26.4 33.4l-20.7 25.4 2.8 1.8c14.4 9.6 44 14.7 68.3 12 16.7-1.9 39.2-7.9 49.2-13.2l2.7-1.4-45.2-52.9-4.2-5 6.5 4.4 30.3 20.8c13.1 9 24 16.2 24.1 16 .2-.2-4.8-16.7-11-36.8-9.606-30.903-11.657-37.825-11.212-38.033zm-167.562 5.108c.925.05 1.825.725 2.775 2.025 1.6 2.3 1.4 4.2-1.1 17.3-1.5 8-4.1 15-6.8 18.9-1.5 2-1.5 1.4-1-7.3.4-5.2 1.4-11.6 2.3-14.2 1.2-3.8 1.3-5.2.4-7.3-1.6-3.5-1.5-5.5.5-7.7 1.05-1.2 2-1.775 2.925-1.725zm-28.016 3.147c.103.025.166.153.191.378.2 1.6-1.6 5.7-5.1 11.7-7.9 13.2-9.2 16.3-11.1 24.7-2.4 10.9-3.6 15-4.4 15-.9 0 .1-11.3 1.3-14.5.3-1.1 4.8-10.4 9.8-20.7 5.862-11.9 8.586-16.756 9.309-16.578zm-3.009 19.778c.4 0 .4 1.9.2 4.2-.3 2.4-1.9 6.5-3.6 9.3-4.2 6.9-9.3 26-9.5 35.9l-.2 7.9 3.1.9c1.8.4 3.4 1.4 3.7 2.2.5 1.1 0 1.3-2.5.5-8.6-2.4-11.5-12.7-6.4-22.7 1.4-2.8 4-10 5.7-15.9 2.9-10.1 8.1-22.3 9.5-22.3zm146.4 3c.5 0 12.1 13.2 25.9 29.2l25.1 29.3-3 1.3c-5.5 2.3-20.4 6.3-28.9 7.7-11 2-31.6 1.9-42.2 0-8-1.5-22-5.7-24.6-7.3-.8-.5 6.7-10.5 22.8-30.5 13.2-16.3 24.4-29.7 24.9-29.7zm-147.5 15.5l.3 7.4c.2 4.1 0 8.1-.3 8.9-.4 1.1-.8 1.2-2 .2-2-1.6-1.9-4.4.3-11.1l1.7-5.4zm-5.353 19.581c1.334.12 3.303 1.769 6.053 5.019l7.6 8.7c1.9 2 5.4 6.7 7.9 10.4 3.4 5.2 5 6.8 6.8 6.8 1.4 0 2.9.9 3.6 2.1 1.1 2.2.8 10.1-.5 13.1-.6 1.4-.4 1.8 1.1 1.8 1.3 0 2.8 1.9 5 6.4 4.4 8.8 18.7 24.5 28.3 30.8 4.1 2.8 9.4 7 11.6 9.4 4.8 5.1 7.1 5.5 8 1.6.4-1.5 1.2-3 1.7-3.4 1.4-.9 3.7.1 3.7 1.6 0 .7 1.6 3.4 3.7 6 2.2 2.8 3.3 5 2.7 5.6-.5.5-3 1.4-5.5 2.1l-4.6 1.2-11.5-7.5c-6.3-4.2-14.6-10.5-18.4-14-9.7-9.1-11-9.8-17.4-9.8-3 0-6.5-.3-7.8-.6-1.4-.4-5.2-5-10.3-12.3-4.5-6.4-8.9-12.2-9.7-12.9-.9-.6-3-1.2-4.8-1.2s-4-.3-4.9-.6c-1.4-.6-1.3-.8.6-1.8 3.3-1.7 4.6-4.2 3.2-6.4-2.7-4-6.4-12.3-6-13.5.2-.6 1.9 1.8 3.7 5.5 3.1 6.2 4.6 7.7 9.4 9.2 1.4.5 1.7 1.2 1.2 3.1-.8 3 .1 4.7 7.1 14.2 6.3 8.5 8.1 9.7 14 9 3.3-.3 4.9 0 6.8 1.5 3.7 2.9 5.1 1.7 2.2-1.8-1.4-1.7-4.4-3.6-6.7-4.3-4.6-1.4-7-4.5-9.6-12.6-.9-2.8-3.2-7.5-5.1-10.5-10.5-16.8-13.5-21.1-18.6-27.5-5.8-7.1-7.4-10.3-6.3-13 .375-1.012.946-1.491 1.747-1.419zm280.153 12.019c.5 0 2.2.7 3.8 1.6 2.3 1.4 2.7 2.2 2.2 4.2-.8 3.7-1 3.9-3.7 3.4-3.6-.7-9.1 4.8-8.2 8.1.8 3.1-1.8 16.5-4 20.8-.9 1.8-2.9 5.1-4.5 7.4-1.5 2.3-3.3 6.2-4 8.9-1.9 7.4-9.7 11.3-12.1 6-2.5-5.4-7.2-4.5-25.4 5.1-6.7 3.6-14.3 7.1-17.1 7.9-6.2 1.8-13.5 7-17.4 12.3-4 5.5-6.8 5.5-13.9.2-2.9-2.2-5.5-4-5.6-4-.2 0-1.5.5-3.1 1.1-1.5.6-6.4 1.5-10.8 2-5.2.6-8.9 1.6-10.7 2.9-2 1.5-4.3 2-9.1 2h-6.4l-3.6-5.4c-4.5-6.8-12.1-11.5-30.2-18.7-15-5.9-19.2-6.1-26.2-1.5-3.2 2.2-4.5 2.5-6 1.7-2.9-1.5-20.1-19.7-21.8-23.1-2.8-5.3-5.5-15.4-5.5-20.3 0-5.3-2.4-8.7-6.3-8.7-1.3 0-3.2-.6-4.2-1.4-2.3-1.7-1.3-3.3 4.1-6.7l3.4-2 6.9 6.2 7 6.2-3.2 4.4c-1.7 2.5-3.5 4.7-3.9 4.9-1.5.9-.8 5.1 1 6.7 5.1 4.6 19 13.7 20.9 13.7 1.5 0 3.5-1.7 6.4-5.5 2.3-3 4.3-5.5 4.5-5.5.4 0 16.6 8 17.1 8.4.2.2-.7 3.1-1.8 6.5-3.1 9.2-2.7 9.8 12 14.4 9.2 2.8 12.6 3.5 14 2.7 1.1-.5 2.9-3.8 4.1-7.5 1.2-3.6 2.5-6.5 2.8-6.5.4 0 4.5.7 9.2 1.5l8.8 1.5c.1 0 .2 3.4.2 7.5 0 6.3.3 7.6 1.9 8.5 2.9 1.5 26.8 1.3 27.8-.3.4-.6 1-4.3 1.3-8.2l.5-6.9 8.5-1.8 9.6-1.8c.6 0 2.2 2.8 3.5 6.1 3.4 8.6 4.2 9 14 5.6 11.7-4 16.6-6.6 17.2-8.8.3-1.1-.5-4.7-1.8-8l-2.4-5.9 8.1-4.1c4.4-2.2 8.1-3.9 8.2-3.7 5.3 7.9 8 10.8 10.3 10.8 5 0 25.3-13.9 25.3-17.3 0-.8-1.8-3.8-3.9-6.8l-3.9-5.4 7.6-7.6c4.2-4.2 8.1-7.7 8.5-7.8zM78.002 345.773c.814.021 2.331.966 3.706 2.478 1.2 1.3 3.2 4 4.4 6 1.9 3.1 2 3.8.8 4.3-.9.3-2.2-.1-3.1-.8-1.4-1.1-6.4-10-6.4-11.4 0-.406.224-.588.594-.578zm-12.494.078c.5 0 .9.6.9 1.2 0 1.4 1.3 4 4.9 10 1.3 2.1 1.8 3.8 1.2 3.8-.5 0-2.2-2-3.6-4.4-3-5.2-4.8-10.6-3.4-10.6zm328.9 39.2l10.8.5c5.9.3 11.3 1 12 1.6.6.5 1.2 1.5 1.2 2.1-.1 1-20.6 16.5-23.1 17.4-.5.2-.9-4.4-.9-10.6v-11zm-324.772 6.058c.441.08.347 2.142-.028 9.942-.2 5.4-.7 9.8-1.1 9.8-.3 0-6-3.1-12.6-6.8-8.9-5.1-12-7.3-12-8.7 0-1.8.9-2 12.2-2.5 6.7-.3 12.5-.8 12.9-1.3.275-.275.481-.469.628-.442zm360.434.37c.188.016.338.072.438.172.4.4 2.4 5.2 4.4 10.7 4.6 12.2 5.5 19.7 3 24.6-4.6 9-14.4 17.7-35.8 32.1-20.9 14-28.8 17.8-39.4 19.2-5.2.7-37.9-1.5-52.8-3.5-10.3-1.3-41.3-8-48.2-10.4-.7-.2.1-1.8 2.2-4l3.3-3.7 6.4 2c5.3 1.6 6.6 1.7 7.6.5 1-1 1-1.3-.3-1.3-2.7 0-2.7-2.5 0-11.4 1.8-6 3.1-8.6 4.2-8.6s1.4.7 1.1 2.5c-.6 3.1.8 3.2 3.1.3 2.5-3 5.5-1.8 4.7 1.9l-1.7 9.7c-.9 5.3-1.6 7-3 7.3-2.3.6-2.5 1.9-.4 2.7 2.7 1 11.5 1.9 11.5 1.1 0-.4-.7-1.3-1.5-1.9-1.4-1-1.3-2.1.4-10.4 1-5.1 2.1-9.5 2.4-9.8 1.1-1.1 4.7 1.7 4.7 3.6 0 2.4 1.5 2.6 2.4.4 1.1-2.9.6-5.3-1.1-5.8l-9.8-2.1c-4.4-.8-11.4-2.4-15.5-3.5-5.4-1.4-7.6-1.6-8.1-.8-.4.7-.1 1.7.8 2.3 1.3 1 1.3 2-.7 9.1-3.2 11.5-6 14.3-5.2 5.1.4-4.9.1-5.6-5.3-14-3.2-4.8-5.5-9.1-5.1-9.4 1.1-1.2 18.4 1.5 33.3 5.1 7.7 1.9 18.3 3.9 23.5 4.6 5.1.6 13.4 1.8 18.3 2.6 10.6 1.6 21.5 1.8 26.7.4 2.3-.7 11.8-7.4 25-17.7 11.7-9.2 25.5-19.1 30.6-22s10.3-6 11.5-6.8c.9-.6 1.8-.919 2.362-.872zm-279.034 5.747a7.58 7.58 0 0 1 1.072.125c1.8.3 8 2.4 13.9 4.6 14.5 5.4 19.2 8 24.3 13.2l4.4 4.6-3.4.5c-11.5 1.7-12.7 1.6-15.9-1.1-1.8-1.4-4.3-4.3-5.6-6.4-3.7-5.9-6.4-7.2-14.6-7.1-3.8.1-7.9-.3-8.9-.9-4.406-2.344-.55-7.763 4.728-7.525zm-117.528.525l3.2 1.9c1.8 1.1 7.5 4.4 12.7 7.4 5.2 3.1 18.3 12 29 19.8 10.7 7.9 20.8 14.8 22.3 15.4 5.1 2 41-3.3 62.9-9.3l18.8-5.1 23.6.2 23.7.3 2.4 10c3.8 16.3 2.9 16.8-5.2 3.2-3.8-6.4-7.2-11.7-7.5-11.7s-1.7 4.4-3 9.7c-4.1 17.3-4 17-5.6 14.8-1.3-1.8-1.5-1.7-3.8.8-2.8 3-7.2 4.4-9.5 3-4.4-2.7-6.5-12.8-3.5-17.1 2-2.9 7.4-3 9.9-.2 2.9 3.2 3.8 2.4 3.1-2.3-.7-4.5-2.5-7.1-3.3-5-.3.7-2.1 1.3-4.1 1.3-13.4 0-19.3 17.5-8.7 25.8 3.5 2.8 10.7 2.9 15 .4 1.7-1 4.6-1.9 6.5-2s4.3-.5 5.3-.8c1.7-.5 1.7-.7.3-2.3-2.1-2.3-2-3.8.3-5.1 2.9-1.5 5.2-1.2 6.7.7 1 1.5 1 2.1-.4 3.7-1.7 1.8-1.5 1.9 3.6 1.3 2.8-.3 5.2-.4 5.2-.2 0 1.1-28.2 9.3-53.5 15.5-28.6 7.1-48.5 10.4-69.5 11.7-12.5.7-11.3 1.1-31-12-7.4-5-17.5-11.1-22.5-13.5-12.3-6-21.5-12.3-26.9-18.3-6.1-6.8-6.4-10-.5-5.8 3.1 2.2 5.9 1.8 3.9-.6-.8-1-.7-2.1.4-4.4 2.8-5.3 3.6-4.6 3.6 2.8 0 6.6.2 7.1 3 9.1 1.7 1.2 3.7 2.3 4.4 2.4s4.5 2.4 8.5 5.1l7.1 4.9 3.5-3.4c3.8-3.7 3.3-6.4-.6-3.6-2.8 1.9-4.9 2-7.3.3-2.1-1.5-1.6-3.9 1.5-7.6 1.6-2 2.2-2.2 2.9-1.1.4.7.4 2.4-.1 3.7-2 5.4.2 4.4 5-2.3 4-5.5 4.6-9.1 1.2-6-1.9 1.7-5.1 2.2-5.1.7 0-.4 1-2.1 2.2-3.7l2.5-3.3c.2-.3 1.5.6 2.9 2 2.1 1.9 2.5 3 2 5.6-.6 4 .6 4.2 3.2.5 1.7-2.3 2.2-2.4 2.7-1.1.8 2.1-10.4 18.9-12.4 18.6-3.1-.4-1.9 2.1 2.4 5.2 4.4 3.2 7.9 3.5 5.4.5-.9-1.1-.6-2.3 1.5-5.4 2.5-3.9 2.8-4 4.9-2.5 3.3 2.3 9.3 2 11.2-.8 1.6-2.1 1.7-1.8 1.1 5.8-.4 4.4-1 9.7-1.3 11.7-.3 2.3-.1 3.8.4 3.8.6 0 5-3.2 9.9-7.1 10-8 12-9.3 13.4-8.4.6.3 1 4.7 1 9.7 0 8.1-.2 9-2 9.5-1.1.3-2 1.2-2 2 0 1.3 1.6 1.4 9.8.9 20.1-1.2 29.8-2.2 32.2-3.3 1.4-.6 7.1-1.7 12.7-2.3 5.7-.7 10.7-1.8 11.3-2.5s3.5-1.6 6.5-2c3.8-.4 5.5-1.1 5.5-2.1 0-.8-.8-1.4-1.9-1.4-1.5 0-2.1-1.6-3.6-10.5-1.8-10.3-1.8-10.6.1-12 1.8-1.4 1.8-1.4-.3-1.5-3.7 0-12.3 2.1-12.3 3.1 0 .5.9.9 2 .9 1.4 0 2.1.9 2.6 3.7l1.9 10.6c.7 3.8.9 7 .4 7.3s-.9-.9-.9-2.5c0-2.1-.5-3.1-1.5-3.1s-1.5 1-1.5 3c0 3.4-3.6 6.3-7.2 5.8-2-.3-2.4-1.1-3.5-7.8-1.7-10.6-1.6-14 .2-14 .8 0 1.5-.6 1.5-1.3 0-1-1.4-1.1-7-.4-3.8.6-7 1.4-7 1.8 0 .5.6.9 1.4.9s1.7.4 2.1.9c1.2 2 3.3 20.6 2.4 21.5-.5.6-.9-.1-.9-1.7 0-1.7-1-3.7-2.5-5.1-2.4-2.2-2.4-2.3-.5-3.9 4.1-3.5 1.2-9.2-5.5-10.7-6.3-1.5-14.5-1.3-14.5.4 0 .8.7 1.6 1.5 2 1.2.4 1.5 2.4 1.5 9v8.4l-3.1-3c-2.6-2.7-2.8-3.3-1.5-4 1.8-1 2.1-5.9.6-8.8-1.5-2.8-7-4.1-16-3.9-7.7.3-10.3 1-8 2.4.5.3 1 1 1 1.5 0 1-11.1 10.3-11.6 9.8-.2-.2.2-3.6.8-7.6.9-6 1.4-7.2 2.9-7.2 1.1 0 1.9-.4 1.9-.8 0-.9-8.9-5.6-10.7-5.7-.6 0-2.2-1-3.5-2.1-3-2.8-26.3-19.3-28.3-20-1.8-.7-2 .7-.4 2.3.9.9-.4 3.3-4.7 9.4l-6.5 9.1c-.3.5-1.3.6-2.2.2-1.3-.5-1.7-1.9-1.7-5.8 0-5 .1-5.2 3.3-6.1 4.3-1.3 6.4-5.5 4.7-9.5-1.1-2.6-13.6-12-16-12-1.3 0-1.3 1.3.1 2.7.8.8-.4 3.4-4.5 9.8-6.3 9.6-8.2 10.9-3.7 2.4 1.6-3 3.2-7.7 3.6-10.4l1.1-9.3.5-4.3zm268.23 13.095c1.608.017 3.158 1.036 4.17 3.005 2.4 4.7 2 9.6-1.1 11.7-2.3 1.4-3.2 1.5-7.3.4-5.4-1.4-7.2-2.8-5.2-4 .8-.6 2.4-.5 3.8.2 3.1 1.4 3.9.4 1.9-2.5s-2-4.7.1-7c1.094-1.225 2.379-1.818 3.63-1.805zm108.898 1.161c-.15.009-.228.056-.228.144 0 .7 1.3 5.9 3 11.7 3.2 11.3 3.5 13.6 2.1 14.4-1.3.8-13.6-14-13.6-16.4-.1-3.1-1.2-3.3-4.4-.9-3.1 2.3-4.3 5.6-1.7 4.6 1.3-.5 8.4 5.8 7.5 6.7-.3.3-3.2-.1-6.4-.9-8.7-2.1-10.8-1.9-13.8 1.3-3.3 3.5-3.4 4.6-.3 3.8 2.1-.5 3.4.4 8.5 6.4 6.5 7.5 6.7 8 5 9.7-.8.8-.8 1.3 0 1.8 1.3.7 8.6-5.2 8.6-6.9 0-.6-1.1-1-2.5-.8-1.9.2-3.5-.9-6.7-4.7-2.4-2.7-4.3-5.2-4.3-5.4 0-.3 5 .8 11 2.3 12.3 3.1 14 2.9 19-2.5l2.4-2.6-2.1-.5c-3.5-.9-3.7-3.5-.6-6 3.4-2.7 6.8-1.6 5.7 1.8-.8 2.6.4 2.2 6.1-2.2 4.3-3.4 5.3-5.8 2.3-5.2-.9.1-6.8-2.2-13.2-5.2-5.775-2.712-10.325-4.507-11.372-4.444zm-366.764 2.406c.451.015.923.4 1.636 1.037 1 .9 1.9 2.3 1.9 2.9 0 1.4-3.8 6.5-4.9 6.5-.4 0-1.5-.6-2.5-1.3-1.8-1.3-1.7-1.6.8-5.6 1.625-2.562 2.313-3.563 3.064-3.537zm372.923 6.888c.288 0 .762.25 1.512.75 1.5.9 1.7 1.5.9 2.6-.9 1-1.3 1.1-1.9 0-.5-.7-.9-1.9-.9-2.6 0-.5.1-.75.387-.75zm-183.895.173c.952-.005 3.183.202 5.808.577 5.4.7 6.6 1.2 9.4 4.3 3.1 3.6 13.7 19.7 14.9 22.8.4 1-.4 2.6-2.1 4.3l-2.7 2.7-1.7-2.2-1.7-2.3-2.9 4.2c-3.7 5.4-15.3 16-17.4 16-.9-.1-3.1-.9-4.9-1.9-3-1.5-3.2-1.9-1.8-3 1.1-.9 1.6-1 1.6-.2 0 2.7 4.6.8 8.7-3.5 5-5.4 5.4-8 2.5-16.5-1.1-3-2.7-8.8-3.7-12.9-.9-4.1-2.4-8.5-3.1-9.7-.8-1.2-1.4-2.4-1.4-2.6 0-.05.175-.075.492-.077zM84.241 439.309c.102-.015.192-.002.267.042.5.4.9 1.6.9 2.7 0 3.7-4.8 7.5-6.4 5-.656-1.125 3.697-7.524 5.233-7.742zm283.867 1.542c-.5 0-.6.8-.3 1.7 1.9 6.8 4.6 23.6 4 25.7-.3 1.4-.3 2.6.1 2.6 1.4 0 7.4-5.3 6.9-6.1-.3-.5-.9-.7-1.4-.4-.8.5-3-2.4-3-3.9 0-.2 1.3-1.4 3-2.6 2.4-1.7 3.4-1.9 5-1 1.5.8 1.9 1.7 1.4 3.7-.8 2.8-1 2.9 6.4-2.1 4.6-3.1 5.3-4.6 2.3-4.6-1.1 0-6.8-2.9-12.8-6.5-5.9-3.6-11.2-6.5-11.6-6.5zm-148.65 2.033c.448.053.956.561 1.35 1.567.9 2.2.8 2.4-.9 2.4-.8 0-1.5-.9-1.5-2 0-1.35.475-2.035 1.05-1.967zm98.939.647c-.728.175-4.027 4.383-7.589 9.82-3.8 5.7-7.7 10.7-8.6 11.1-3 .9-2 2.1 2.3 2.8 3.9.6 6.8-.2 4.2-1.1-.9-.3-.9-1-.1-2.9.9-1.9 1.7-2.4 3.2-2 1.2.3 2.7.6 3.4.6s1.6 1 2.1 2.2c.7 1.9.4 2.5-1.3 3.2-2 .8-1.9.9.9 1.7 1.7.5 13 1.2 25.3 1.5 20.1.6 22.2.5 22.2-1 0-.9-.7-1.6-1.5-1.6-1.2 0-1.5-1.8-1.5-10s.3-10 1.5-10a1.54 1.54 0 0 0 1.5-1.5c0-1.2-1.4-1.5-7-1.5-4.4 0-7 .4-7 1.1 0 .6.9 1.3 2 1.6 1.8.5 2 1.4 2 10.4 0 8.4-.2 9.9-1.6 9.9-1.2 0-1.5-.7-1.2-3 .3-2 0-3-.9-3-.7 0-1.3.6-1.3 1.3 0 2.6-3.7 4.9-7.2 4.5-3.1-.3-3.3-.6-3.6-4.3-.2-2.2-.1-6.8.3-10.3.6-5.2 1-6.2 2.6-6.2 2.3 0 2.5-1.5.3-2.4-2.1-.8-12.4-.8-12.4 0 0 .4.7 1.2 1.6 1.9 1.4 1 1.5 2.5.9 10.6-.6 8.7-.9 9.5-3.1 10.6-3.1 1.4-3.3 1-6.9-12.7-1.5-5.8-3-10.9-3.4-11.3-.025-.025-.062-.032-.111-.02zM142.918 451c.647-.028 1.528.502 2.691 1.552 2.3 2.1 2.3 4.5-.1 6.7-2.7 2.4-4.1 1.2-4.1-3.3 0-3.312.43-4.906 1.509-4.952zm231.505 1.019c.09-.002.186.008.286.033.6.3 1.2 1.1 1.2 1.8s-.6 1.5-1.2 1.7c-.8.3-1.3-.4-1.3-1.7 0-1.137.382-1.815 1.014-1.833zm-252.014.833c1.2 0 2.5 1 3.2 2.5.9 2.1.8 2.8-.7 4.5-3 3.3-4.5 2.5-4.5-2.5 0-3.8.3-4.5 2-4.5zm192.388.588c.263-.038.463.362.813 1.212.3.9.7 2.3.7 2.9.1.7-.8 1.3-1.9 1.3-2.3 0-2.5-1.2-.8-4 .6-.9.925-1.375 1.188-1.412zm-171.297 9.427c1.121-.057 2.409.836 3.509 2.486.9 1.4 1.3 3.2.9 4.5-.7 2.3-4 4.4-5.5 3.5-1.1-.7-1.4-8.8-.3-9.8.406-.437.881-.66 1.391-.686zm-21.561 1.459c1.195.052 2.995.877 3.67 1.927 2.3 3.4-.4 9.5-3.7 8.2-1.5-.5-2.2-8.5-.9-9.9.2-.175.531-.244.93-.227zm79.088 9.602c.289.006.383.125.383.325 0 .3-1 2.1-2.1 4.1-1.6 2.6-4.1 4.6-9 7-4.1 2.1-9.9 6.4-14.7 10.9-9 8.4-10.1 9.1-15.9 10-7.2 1.1-8-.1-3.1-4.6 2.4-2.2 6.3-4.9 8.7-5.9 3.8-1.7 4.2-2.1 3-3.6-1.2-1.4-1.1-1.7.5-2.7 1-.6 4.2-2.6 7-4.5 2.8-1.8 9.4-5 14.6-7.2 7.125-2.85 9.75-3.844 10.617-3.825zm69.578.567c.896-.01 4.767.833 9.405 2.058 7.2 1.8 10.9 3.3 14.8 6.2 2.8 2.1 7.1 6 9.5 8.6l4.4 4.8-2.2 1.9c-2.6 2.1-6.2 2.3-9.4.6-6.6-3.4-26.7-21.6-26.7-24.1 0-.038.067-.056.195-.058z"/></svg>