<?xml version="1.0" encoding="UTF-8" standalone="no"?>
<svg
   xmlns:dc="http://purl.org/dc/elements/1.1/"
   xmlns:cc="http://creativecommons.org/ns#"
   xmlns:rdf="http://www.w3.org/1999/02/22-rdf-syntax-ns#"
   xmlns:svg="http://www.w3.org/2000/svg"
   xmlns="http://www.w3.org/2000/svg"
   viewBox="390 280 320 255"
   height="200"
   width="200"
   id="svg2"
   version="1.1"><metadata
     id="metadata8"><rdf:RDF><cc:Work
         rdf:about=""><dc:format>image/svg+xml</dc:format><dc:type
           rdf:resource="http://purl.org/dc/dcmitype/StillImage" /></cc:Work></rdf:RDF></metadata><defs
     id="defs6"><linearGradient
       id="linearGradient30"
       spreadMethod="pad"
       gradientTransform="matrix(138.60829,-112.28085,112.28085,138.60829,364.58923,377.05582)"
       gradientUnits="userSpaceOnUse"
       y2="0"
       x2="1"
       y1="0"
       x1="0"><stop
         id="stop24"
         offset="0"
         style="stop-opacity:1;stop-color:#ffffff" /><stop
         id="stop26"
         offset="0.53827107"
         style="stop-opacity:1;stop-color:#b4b3b3" /><stop
         id="stop28"
         offset="1"
         style="stop-opacity:1;stop-color:#b4b3b3" /></linearGradient><linearGradient
       id="linearGradient52"
       spreadMethod="pad"
       gradientTransform="matrix(138.59714,-112.2718,112.2718,138.59714,381.93094,398.50848)"
       gradientUnits="userSpaceOnUse"
       y2="0"
       x2="1"
       y1="0"
       x1="0"><stop
         id="stop46"
         offset="0"
         style="stop-opacity:1;stop-color:#ffffff" /><stop
         id="stop48"
         offset="0.53827107"
         style="stop-opacity:1;stop-color:#b4b3b3" /><stop
         id="stop50"
         offset="1"
         style="stop-opacity:1;stop-color:#b4b3b3" /></linearGradient><linearGradient
       id="linearGradient74"
       spreadMethod="pad"
       gradientTransform="matrix(138.57941,-112.25744,112.25744,138.57941,335.14474,340.61365)"
       gradientUnits="userSpaceOnUse"
       y2="0"
       x2="1"
       y1="0"
       x1="0"><stop
         id="stop68"
         offset="0"
         style="stop-opacity:1;stop-color:#ffffff" /><stop
         id="stop70"
         offset="0.53827107"
         style="stop-opacity:1;stop-color:#b4b3b3" /><stop
         id="stop72"
         offset="1"
         style="stop-opacity:1;stop-color:#b4b3b3" /></linearGradient><linearGradient
       id="linearGradient96"
       spreadMethod="pad"
       gradientTransform="matrix(138.5993,-112.27355,112.27355,138.5993,329.06775,333.13312)"
       gradientUnits="userSpaceOnUse"
       y2="0"
       x2="1"
       y1="0"
       x1="0"><stop
         id="stop90"
         offset="0"
         style="stop-opacity:1;stop-color:#ffffff" /><stop
         id="stop92"
         offset="0.53827107"
         style="stop-opacity:1;stop-color:#b4b3b3" /><stop
         id="stop94"
         offset="1"
         style="stop-opacity:1;stop-color:#b4b3b3" /></linearGradient><linearGradient
       id="linearGradient118"
       spreadMethod="pad"
       gradientTransform="matrix(138.59647,-112.27126,112.27126,138.59647,367.44128,380.57349)"
       gradientUnits="userSpaceOnUse"
       y2="0"
       x2="1"
       y1="0"
       x1="0"><stop
         id="stop112"
         offset="0"
         style="stop-opacity:1;stop-color:#ffffff" /><stop
         id="stop114"
         offset="0.53827107"
         style="stop-opacity:1;stop-color:#b4b3b3" /><stop
         id="stop116"
         offset="1"
         style="stop-opacity:1;stop-color:#b4b3b3" /></linearGradient><linearGradient
       id="linearGradient140"
       spreadMethod="pad"
       gradientTransform="matrix(138.59532,-112.27034,112.27034,138.59532,384.90735,402.18787)"
       gradientUnits="userSpaceOnUse"
       y2="0"
       x2="1"
       y1="0"
       x1="0"><stop
         id="stop134"
         offset="0"
         style="stop-opacity:1;stop-color:#ffffff" /><stop
         id="stop136"
         offset="0.53827107"
         style="stop-opacity:1;stop-color:#b4b3b3" /><stop
         id="stop138"
         offset="1"
         style="stop-opacity:1;stop-color:#b4b3b3" /></linearGradient><linearGradient
       id="linearGradient162"
       spreadMethod="pad"
       gradientTransform="matrix(138.59033,-112.26629,112.26629,138.59033,311.44595,311.32602)"
       gradientUnits="userSpaceOnUse"
       y2="0"
       x2="1"
       y1="0"
       x1="0"><stop
         id="stop156"
         offset="0"
         style="stop-opacity:1;stop-color:#ffffff" /><stop
         id="stop158"
         offset="0.53827107"
         style="stop-opacity:1;stop-color:#b4b3b3" /><stop
         id="stop160"
         offset="1"
         style="stop-opacity:1;stop-color:#b4b3b3" /></linearGradient><linearGradient
       id="linearGradient184"
       spreadMethod="pad"
       gradientTransform="matrix(138.59547,-112.27045,112.27045,138.59547,291.4325,286.57919)"
       gradientUnits="userSpaceOnUse"
       y2="0"
       x2="1"
       y1="0"
       x1="0"><stop
         id="stop178"
         offset="0"
         style="stop-opacity:1;stop-color:#ffffff" /><stop
         id="stop180"
         offset="0.53827107"
         style="stop-opacity:1;stop-color:#b4b3b3" /><stop
         id="stop182"
         offset="1"
         style="stop-opacity:1;stop-color:#b4b3b3" /></linearGradient><linearGradient
       id="linearGradient206"
       spreadMethod="pad"
       gradientTransform="matrix(138.61142,-112.28337,112.28337,138.61142,332.31183,337.14636)"
       gradientUnits="userSpaceOnUse"
       y2="0"
       x2="1"
       y1="0"
       x1="0"><stop
         id="stop200"
         offset="0"
         style="stop-opacity:1;stop-color:#ffffff" /><stop
         id="stop202"
         offset="0.53827107"
         style="stop-opacity:1;stop-color:#b4b3b3" /><stop
         id="stop204"
         offset="1"
         style="stop-opacity:1;stop-color:#b4b3b3" /></linearGradient><linearGradient
       id="linearGradient228"
       spreadMethod="pad"
       gradientTransform="matrix(138.59813,-112.27261,112.27261,138.59813,324.0051,326.86639)"
       gradientUnits="userSpaceOnUse"
       y2="0"
       x2="1"
       y1="0"
       x1="0"><stop
         id="stop222"
         offset="0"
         style="stop-opacity:1;stop-color:#ffffff" /><stop
         id="stop224"
         offset="0.53827107"
         style="stop-opacity:1;stop-color:#b4b3b3" /><stop
         id="stop226"
         offset="1"
         style="stop-opacity:1;stop-color:#b4b3b3" /></linearGradient><clipPath
       id="clipPath238"
       clipPathUnits="userSpaceOnUse"><path
         id="path236"
         d="M 0,595.28 H 841.89 V 0 H 0 Z" /></clipPath></defs><g
     transform="matrix(1.3333333,0,0,-1.3333333,0,793.70667)"
     id="g10"><g
       id="g12"><g
         id="g14"><g
           id="g20"><g
             id="g22"><path
               id="path32"
               style="fill:url(#linearGradient30);stroke:none"
               d="m 416.853,360.809 v -0.003 c -0.113,0.004 -21.598,0.771 -32.667,-22.065 v 0 l 2.206,-3.673 c 0,0 8.212,14.188 20.112,14.164 v 0 c 2.408,-0.28 1.922,-1.013 1.679,-1.988 v 0 l -8.714,-33.945 3.942,-5.44 13.442,32.156 10e-4,0.002 13.447,-32.157 3.938,5.435 -8.714,33.95 c -0.242,0.978 -0.731,1.708 1.678,1.989 v 0 c 11.899,0.026 20.114,-14.165 20.114,-14.165 v 0 l 2.205,3.676 c -10.346,21.344 -29.794,22.068 -32.383,22.068 v 0 c -0.187,0 -0.286,-0.004 -0.286,-0.004" /></g></g></g></g><g
       id="g34"><g
         id="g36"><g
           id="g42"><g
             id="g44"><path
               id="path54"
               style="fill:url(#linearGradient52);stroke:none"
               d="m 411.203,370.281 c 0.003,-3.087 2.499,-5.588 5.574,-5.588 v 0 c 3.079,0 5.579,2.502 5.579,5.588 v 0 c 0,3.084 -2.498,5.584 -5.574,5.584 v 0 c -3.08,0 -5.579,-2.5 -5.579,-5.584" /></g></g></g></g><g
       id="g56"><g
         id="g58"><g
           id="g64"><g
             id="g66"><path
               id="path76"
               style="fill:url(#linearGradient74);stroke:none"
               d="m 446.596,248.308 v -0.003 l -29.74,18.099 -0.002,-6.716 26.972,-22.336 c 0.768,-0.645 1.591,-0.953 -0.193,-2.597 v 0 c -9.612,-7.028 -24.58,-0.385 -24.58,-0.385 v 0 l 0.369,-4.27 c 22.414,-11.989 39.375,1.387 39.375,1.387 v 0 0.001 c 0.094,0.065 17.928,12.095 13.483,37.085 v 0 l -3.939,1.674 c 0,0 1.68,-16.313 -7.964,-23.299 v 0 c -2.111,-1.194 -2.147,-0.313 -2.523,0.619 v 0 l -12.863,32.602 -6.381,2.071 z" /></g></g></g></g><g
       id="g78"><g
         id="g80"><g
           id="g86"><g
             id="g88"><path
               id="path98"
               style="fill:url(#linearGradient96);stroke:none"
               d="m 461.137,228.387 c -2.486,-1.815 -3.042,-5.307 -1.233,-7.803 v 0 c 1.81,-2.498 5.296,-3.05 7.785,-1.238 v 0 c 2.492,1.813 3.047,5.308 1.237,7.804 v 0 c -1.093,1.505 -2.793,2.303 -4.516,2.303 v 0 c -1.137,0 -2.282,-0.347 -3.273,-1.066" /></g></g></g></g><g
       id="g100"><g
         id="g102"><g
           id="g108"><g
             id="g110"><path
               id="path120"
               style="fill:url(#linearGradient118);stroke:none"
               d="m 450.868,332.483 c 0,0 16.007,-3.439 19.661,-14.786 v 0 c 0.478,-2.381 -0.368,-2.144 -1.371,-2.214 v 0 l -34.919,-2.188 -3.938,-5.435 34.677,-2.872 0.002,-10e-4 -26.37,-22.747 6.381,-2.071 29.53,18.791 c 0.853,0.533 1.394,1.224 2.407,-0.985 v 0 c 3.699,-11.333 -7.229,-23.543 -7.229,-23.543 v 0 l 4.166,-0.964 c 18.307,17.65 10.85,37.945 10.85,37.945 v 0 c -0.031,0.111 -5.941,20.817 -31.041,24.307 v 0 z" /></g></g></g></g><g
       id="g122"><g
         id="g124"><g
           id="g130"><g
             id="g132"><path
               id="path142"
               style="fill:url(#linearGradient140);stroke:none"
               d="m 491.962,319.722 c -2.931,-0.953 -4.532,-4.104 -3.579,-7.036 v 0 c 0.951,-2.933 4.098,-4.539 7.024,-3.588 v 0 c 2.928,0.956 4.53,4.105 3.577,7.036 v 0 c -0.762,2.362 -2.948,3.864 -5.297,3.864 v 0 c -0.572,0 -1.151,-0.089 -1.725,-0.276" /></g></g></g></g><g
       id="g144"><g
         id="g146"><g
           id="g152"><g
             id="g154"><path
               id="path164"
               style="fill:url(#linearGradient162);stroke:none"
               d="M 388.723,280.159 375.86,247.564 c -0.378,-0.934 -0.413,-1.813 -2.527,-0.62 v 0 c -9.641,6.987 -7.962,23.303 -7.962,23.303 v 0 l -3.938,-1.674 c -4.455,-25.058 13.484,-37.09 13.484,-37.09 v 0 l 0.001,0.004 c 0.09,-0.074 17.02,-13.345 39.372,-1.387 v 0 l 0.371,4.27 c 0,0 -14.967,-6.643 -24.579,0.386 v 0 c -1.785,1.643 -0.962,1.951 -0.193,2.596 v 0 l 26.965,22.336 0.004,6.716 -29.741,-18.099 h -0.005 l 7.991,33.931 z" /></g></g></g></g><g
       id="g166"><g
         id="g168"><g
           id="g174"><g
             id="g176"><path
               id="path186"
               style="fill:url(#linearGradient184);stroke:none"
               d="m 364.906,227.061 c -1.806,-2.498 -1.254,-5.989 1.235,-7.802 v 0 c 2.493,-1.813 5.979,-1.261 7.789,1.236 v 0 c 1.81,2.496 1.256,5.989 -1.233,7.801 v 0 c -0.989,0.721 -2.136,1.067 -3.273,1.067 v 0 c -1.725,0 -3.425,-0.798 -4.518,-2.302" /></g></g></g></g><g
       id="g188"><g
         id="g190"><g
           id="g196"><g
             id="g198"><path
               id="path208"
               style="fill:url(#linearGradient206);stroke:none"
               d="m 348.994,311.408 0.002,-0.001 c -0.039,-0.106 -7.407,-20.342 10.85,-37.943 v 0 l 4.169,0.968 c 0,0 -10.93,12.208 -7.231,23.539 v 0 c 1.011,2.209 1.555,1.518 2.407,0.985 v 0 l 29.532,-18.797 6.38,2.077 -26.37,22.748 -0.002,0.003 34.68,2.872 -3.942,5.44 -34.921,2.183 c -1.002,0.069 -1.849,-0.17 -1.368,2.213 v 0 c 3.653,11.346 19.658,14.787 19.658,14.787 v 0 l -2.806,3.238 c -25.162,-3.499 -31.038,-24.312 -31.038,-24.312" /></g></g></g></g><g
       id="g210"><g
         id="g212"><g
           id="g218"><g
             id="g220"><path
               id="path230"
               style="fill:url(#linearGradient228);stroke:none"
               d="m 334.678,315.993 c -0.952,-2.934 0.649,-6.087 3.579,-7.039 v 0 c 2.928,-0.953 6.072,0.653 7.025,3.586 v 0 c 0.95,2.933 -0.653,6.083 -3.58,7.039 v 0 c -0.571,0.186 -1.151,0.274 -1.721,0.274 v 0 c -2.351,0 -4.538,-1.501 -5.303,-3.86" /></g></g></g></g><g
       id="g232"><g
         clip-path="url(#clipPath238)"
         id="g234"><g
           transform="translate(414.4096,342.2761)"
           id="g240"><path
             id="path242"
             style="fill:#669835;fill-opacity:1;fill-rule:nonzero;stroke:none"
             d="M 0,0 0.002,0.002 13.445,-32.154 17.386,-26.72 8.674,7.233 C 8.429,8.207 7.942,8.938 10.352,9.219 22.253,9.244 30.461,-4.944 30.461,-4.944 l 2.211,3.674 C 21.571,21.627 0,20.795 0,20.795 v -0.003 c -0.113,0.004 -21.596,0.773 -32.666,-22.065 l 2.206,-3.673 c 0,0 8.212,14.189 20.111,14.164 2.411,-0.282 1.923,-1.013 1.68,-1.989 l -8.718,-33.945 3.943,-5.438 L 0,0" /></g><g
           transform="translate(414.3346,366.9567)"
           id="g244"><path
             id="path246"
             style="fill:#618431;fill-opacity:1;fill-rule:nonzero;stroke:none"
             d="m 0,0 c 3.078,0 5.577,2.503 5.577,5.585 0,3.085 -2.495,5.587 -5.572,5.586 C -3.076,11.172 -5.573,8.67 -5.573,5.585 -5.573,2.499 -3.076,0 0,0" /></g><g
           transform="translate(444.156,250.5701)"
           id="g248"><path
             id="path250"
             style="fill:#a92b6b;fill-opacity:1;fill-rule:nonzero;stroke:none"
             d="m 0,0 v -0.003 l -29.743,18.098 -0.003,-6.717 26.973,-22.334 c 0.769,-0.647 1.592,-0.952 -0.193,-2.597 -9.611,-7.029 -24.58,-0.385 -24.58,-0.385 l 0.37,-4.273 c 22.413,-11.986 39.376,1.39 39.376,1.39 v 0 c 0.092,0.066 17.922,12.096 13.482,37.09 l -3.939,1.671 c 0,0 1.681,-16.314 -7.963,-23.303 -2.113,-1.19 -2.149,-0.311 -2.525,0.619 L -1.606,31.854 -7.99,33.931 0,0" /></g><g
           transform="translate(458.6951,230.6469)"
           id="g252"><path
             id="path254"
             style="fill:#a92b6b;fill-opacity:1;fill-rule:nonzero;stroke:none"
             d="m 0,0 c -2.489,-1.812 -3.042,-5.305 -1.236,-7.802 1.812,-2.496 5.299,-3.048 7.787,-1.233 2.493,1.81 3.046,5.303 1.237,7.8 C 5.975,1.262 2.491,1.813 0,0" /></g><g
           transform="translate(462.5368,307.2496)"
           id="g256"><path
             id="path258"
             style="fill:#d93539;fill-opacity:1;fill-rule:nonzero;stroke:none"
             d="m 0,0 v 0 l -26.371,-22.748 6.384,-2.078 29.528,18.797 c 0.852,0.533 1.395,1.224 2.407,-0.983 3.701,-11.334 -7.23,-23.542 -7.23,-23.542 l 4.169,-0.967 C 27.192,-13.87 19.737,6.426 19.737,6.426 L 19.735,6.425 c -0.032,0.112 -5.943,20.818 -31.038,24.309 l -2.807,-3.238 c 0,0 16.007,-3.44 19.66,-14.787 C 6.029,10.328 5.184,10.565 4.181,10.495 L -30.741,8.307 -34.682,2.873 0,0" /></g><g
           transform="translate(485.9391,314.9469)"
           id="g260"><path
             id="path262"
             style="fill:#d93539;fill-opacity:1;fill-rule:nonzero;stroke:none"
             d="M 0,0 C 0.952,-2.932 4.098,-4.54 7.025,-3.588 9.954,-2.634 11.556,0.518 10.607,3.45 9.654,6.384 6.509,7.992 3.58,7.038 0.65,6.084 -0.951,2.932 0,0" /></g><g
           transform="translate(384.6731,250.567)"
           id="g264"><path
             id="path266"
             style="fill:#3562a1;fill-opacity:1;fill-rule:nonzero;stroke:none"
             d="m 0,0 h -0.004 l 7.99,33.931 -6.379,-2.074 -12.866,-32.6 c -0.373,-0.932 -0.411,-1.811 -2.524,-0.618 -9.641,6.986 -7.96,23.303 -7.96,23.303 l -3.94,-1.675 c -4.455,-25.058 13.485,-37.089 13.485,-37.089 l 0.002,0.003 c 0.088,-0.07 17.019,-13.344 39.371,-1.389 l 0.371,4.273 c 0,0 -14.968,-6.644 -24.58,0.385 -1.786,1.645 -0.961,1.951 -0.193,2.597 L 29.736,11.382 29.744,18.098 0,0" /></g><g
           transform="translate(370.2549,230.558)"
           id="g268"><path
             id="path270"
             style="fill:#3562a1;fill-opacity:1;fill-rule:nonzero;stroke:none"
             d="m 0,0 c -2.492,1.813 -5.978,1.258 -7.791,-1.233 -1.806,-2.497 -1.256,-5.992 1.235,-7.802 2.491,-1.816 5.979,-1.263 7.787,1.231 C 3.043,-5.303 2.489,-1.813 0,0" /></g><g
           transform="translate(366.2902,307.2453)"
           id="g272"><path
             id="path274"
             style="fill:#007b63;fill-opacity:1;fill-rule:nonzero;stroke:none"
             d="M 0,0 -0.002,0.004 34.675,2.876 30.733,8.314 -4.186,10.498 C -5.187,10.568 -6.032,10.33 -5.554,12.712 -1.899,24.057 14.108,27.5 14.108,27.5 L 11.3,30.736 C -13.865,27.237 -19.739,6.425 -19.739,6.425 h 0.002 c -0.039,-0.106 -7.407,-20.341 10.851,-37.945 l 4.168,0.966 c 0,0 -10.932,12.211 -7.229,23.542 1.009,2.209 1.553,1.518 2.406,0.985 L 19.99,-24.822 26.37,-22.748 0,0" /></g><g
           transform="translate(342.8387,314.8016)"
           id="g276"><path
             id="path278"
             style="fill:#007b63;fill-opacity:1;fill-rule:nonzero;stroke:none"
             d="M 0,0 C 0.95,2.933 -0.653,6.084 -3.579,7.039 -6.508,7.991 -9.654,6.384 -10.604,3.453 -11.556,0.518 -9.954,-2.635 -7.025,-3.586 -4.093,-4.54 -0.951,-2.932 0,0" /></g><g
           transform="translate(302.0302,304.45)"
           id="g280"><path
             id="path282"
             style="fill:#2b4581;fill-opacity:1;fill-rule:nonzero;stroke:none"
             d="m 0,0 1.82,-3.67 c 0,0 -2.06,-1.18 -2.288,-2.906 -0.227,-1.725 0.697,-3.083 2.191,-3.17 1.495,-0.086 1.953,0.714 3.007,2.519 1.054,1.806 3.176,5.526 4.808,6.5 1.633,0.974 4.927,1.647 8.617,-0.965 3.69,-2.611 2.292,-8.441 2.062,-9.085 -0.229,-0.644 -1.089,-2.837 -2.698,-3.668 -1.609,-0.831 -3.337,-1.235 -3.337,-1.235 l -1.65,3.849 c 0,0 3.317,0.425 3.402,3.742 0.085,3.318 -1.956,3.53 -3.147,3.403 -1.191,-0.128 -1.956,-1.14 -3.912,-5.099 -1.957,-3.96 -6.212,-6.288 -10.867,-3.593 -2.306,1.335 -3.487,5.922 -2.366,8.884 C -2.821,-0.434 0,0 0,0" /></g><g
           transform="translate(304.1418,331.3466)"
           id="g284"><path
             id="path286"
             style="fill:#2b4581;fill-opacity:1;fill-rule:nonzero;stroke:none"
             d="m 0,0 -3.575,-13.227 23.448,-6.317 3.546,13.235 -4.28,1.136 -2.255,-8.846 -6.379,1.744 2.339,8.803 -4.21,1.063 -2.254,-8.761 -4.593,1.398 2.34,8.687 z" /></g><g
           transform="translate(321.7083,345.2578)"
           id="g288"><path
             id="path290"
             style="fill:#2b4581;fill-opacity:1;fill-rule:nonzero;stroke:none"
             d="m 0,0 c -0.373,-0.849 -1.022,-2.42 -1.022,-2.42 l -4.933,2.984 c 0,0 0.681,1.446 1.489,2.297 0.808,0.85 1.87,0.977 3.273,0.212 C 0.211,2.307 0.509,1.159 0,0 M 17.522,1.849 4.421,0.096 c 0,0 0.058,0.595 0.213,1.318 C 4.788,2.137 4.762,5.369 1.103,7.233 -2.556,9.097 -6.125,8.644 -7.874,5.7 -9.622,2.756 -12.019,-1.568 -12.019,-1.568 l 21.223,-11.669 2.198,3.954 -8.751,4.748 12.232,1.399 z" /></g><g
           transform="translate(326.5549,368.8291)"
           id="g292"><path
             id="path294"
             style="fill:#2b4581;fill-opacity:1;fill-rule:nonzero;stroke:none"
             d="M 0,0 -3.392,-3.793 23.05,-13.779 11.5,12.118 8.08,8.505 14.502,-5.784 Z" /></g><g
           transform="translate(350.9253,389.6696)"
           id="g296"><path
             id="path298"
             style="fill:#2b4581;fill-opacity:1;fill-rule:nonzero;stroke:none"
             d="M 0,0 13.852,-19.736 9.998,-22.692 -3.957,-2.766 Z" /></g><g
           transform="translate(362.576,396.4298)"
           id="g300"><path
             id="path302"
             style="fill:#2b4581;fill-opacity:1;fill-rule:nonzero;stroke:none"
             d="m 0,0 1.744,-3.785 8.47,3.556 -2.602,-22.858 17.267,7.394 -1.756,4.155 -10.279,-4.41 2.5,22.495 z" /></g><g
           transform="translate(389.2502,405.621)"
           id="g304"><path
             id="path306"
             style="fill:#2b4581;fill-opacity:1;fill-rule:nonzero;stroke:none"
             d="M 0,0 4.821,1.101 9.642,-22.673 5.147,-23.674 Z" /></g><g
           transform="translate(419.8607,387.7132)"
           id="g308"><path
             id="path310"
             style="fill:#2b4581;fill-opacity:1;fill-rule:nonzero;stroke:none"
             d="m 0,0 c -4.082,0 -7.778,3.273 -7.778,8.164 0,4.89 3.95,8.317 7.778,8.317 3.445,0 7.571,-3.056 7.571,-8.239 C 7.571,3.06 4.082,0 0,0 m 0.041,20.839 c -8.975,0 -12.741,-7.147 -12.741,-12.975 0,-5.827 4.578,-12.33 12.63,-12.33 8.053,0 12.771,6.378 12.771,12.634 0,6.255 -4.79,12.671 -12.66,12.671" /></g><g
           transform="translate(469.5754,374.9743)"
           id="g312"><path
             id="path314"
             style="fill:#2b4581;fill-opacity:1;fill-rule:nonzero;stroke:none"
             d="m 0,0 -2.973,-4.954 c 0,0 -2.014,-0.686 -4.565,0.096 -1.459,0.447 -2.971,1.236 -4.629,3.098 -2.912,3.271 -2.516,10.003 0.529,14.76 3.565,5.57 9.649,8.705 15.415,5.257 2.859,-1.709 3.794,-5.518 3.794,-5.518 L 4.68,8.273 c 0,0 -0.116,3.409 -2.853,5.606 -2.737,2.197 -7.44,1.272 -10.138,-3.238 C -10.419,7.118 -11.125,2.7 -8.003,0.464 -4.511,-2.036 0,0 0,0" /></g><g
           transform="translate(486.9374,382.6471)"
           id="g316"><path
             id="path318"
             style="fill:#2b4581;fill-opacity:1;fill-rule:nonzero;stroke:none"
             d="m 0,0 3.774,-3.233 -15.955,-18.354 -3.604,3.122 z" /></g><g
           transform="translate(499.4657,372.1619)"
           id="g320"><path
             id="path322"
             style="fill:#2b4581;fill-opacity:1;fill-rule:nonzero;stroke:none"
             d="m 0,0 3.084,-4.163 -8.456,-13.314 15.225,3.709 2.825,-4.214 -27.478,-5.968 z" /></g><g
           transform="translate(517.7376,344.8312)"
           id="g324"><path
             id="path326"
             style="fill:#2b4581;fill-opacity:1;fill-rule:nonzero;stroke:none"
             d="m 0,0 1.917,-4.255 -21.994,-10.387 -2.011,4.542 z" /></g><g
           transform="translate(524.715,328.2166)"
           id="g328"><path
             id="path330"
             style="fill:#2b4581;fill-opacity:1;fill-rule:nonzero;stroke:none"
             d="m 0,0 1.117,-4.549 -19.042,-5.126 2.082,-7.787 -4.244,-1.316 -3.312,12.687 z" /></g><g
           transform="translate(505.7417,303.219)"
           id="g332"><path
             id="path334"
             style="fill:#2b4581;fill-opacity:1;fill-rule:nonzero;stroke:none"
             d="M 0,0 C 0.013,-0.214 0.431,-13.527 0.431,-13.527 H 4.876 L 4.561,-4.44 H 11.1 l 0.283,-8.779 h 4.107 v 9.09 h 4.732 l 0.354,-8.934 4.173,0.129 -0.467,13.832 z" /></g><g
           transform="translate(518.3867,266.8456)"
           id="g336"><path
             id="path338"
             style="fill:#2b4581;fill-opacity:1;fill-rule:nonzero;stroke:none"
             d="m 0,0 c 0,-2.05 -1.662,-3.712 -3.712,-3.712 -2.05,0 -3.712,1.662 -3.712,3.712 0,2.05 1.662,3.712 3.712,3.712 C -1.662,3.712 0,2.05 0,0" /></g><g
           transform="translate(500.6454,256.1029)"
           id="g340"><path
             id="path342"
             style="fill:#2b4581;fill-opacity:1;fill-rule:nonzero;stroke:none"
             d="m 0,0 -6.457,-12.814 21.725,-11.034 6.394,12.909 -3.921,1.931 c 0,0 -4.176,-8.443 -4.227,-8.425 -0.052,0.019 -5.805,3.037 -5.805,3.037 l 4.308,8.254 -3.934,2.138 -4.191,-8.553 -4.362,2.138 4.359,8.475 z" /></g><g
           transform="translate(506.5703,225.5852)"
           id="g344"><path
             id="path346"
             style="fill:#2b4581;fill-opacity:1;fill-rule:nonzero;stroke:none"
             d="m 0,0 3.374,-2.606 c 0,0 -8.785,-10.773 -8.636,-10.59 0.149,0.183 -18.796,15.547 -18.796,15.547 0,0 3.243,4.135 3.25,3.845 C -20.8,5.907 -5.583,-6.502 -5.583,-6.502 Z" /></g><g
           transform="translate(494.5789,204.9198)"
           id="g348"><path
             id="path350"
             style="fill:#2b4581;fill-opacity:1;fill-rule:nonzero;stroke:none"
             d="m 0,0 -25.379,13.272 5.467,-28.179 4.296,3.241 -3.682,16.892 15.1,-8.312 z" /></g><g
           transform="translate(475.281,203.4316)"
           id="g352"><path
             id="path354"
             style="fill:#2b4581;fill-opacity:1;fill-rule:nonzero;stroke:none"
             d="M 0,0 6.975,5.089 9.712,1.881 c 0,0 -8.339,-6.457 -8.339,-6.286 C 1.373,-4.234 0,0 0,0" /></g><g
           transform="translate(455.516,201.2275)"
           id="g356"><path
             id="path358"
             style="fill:#2b4581;fill-opacity:1;fill-rule:nonzero;stroke:none"
             d="m 0,0 c 0,0 -2.189,1.603 -4.081,0.772 -1.907,-0.839 -2.547,-2.321 -1.293,-3.953 0.984,-1.28 4.029,-0.779 6.544,-1.223 1.557,-0.275 3.399,-0.401 5.09,-1.403 1.427,-0.845 2.531,-3.352 2.605,-5.746 0.071,-2.311 -1.051,-4.517 -2.752,-5.702 -3.102,-2.163 -5.569,-3.011 -9.075,-1.991 -1.821,0.529 -3.48,2.827 -3.48,2.827 l 3.131,3.131 c 0,0 1.465,-3.123 5.783,-1.08 2.212,1.047 1.426,4.202 0.347,4.703 -1.08,0.501 -3.454,0.48 -6.122,0.76 -2.668,0.281 -7.062,1.63 -7.591,5.944 -0.694,5.662 5.116,8.577 8.791,8.576 C 1.161,5.613 2.679,3.459 2.679,3.459 Z" /></g><g
           transform="translate(432.3142,192.4878)"
           id="g360"><path
             id="path362"
             style="fill:#2b4581;fill-opacity:1;fill-rule:nonzero;stroke:none"
             d="m 0,0 c -0.057,-0.833 -0.039,-1.658 -1.426,-2.274 -1.388,-0.617 -3.155,-0.634 -3.084,-0.634 0.071,0 -0.746,5.645 -0.746,5.645 0,0 1.903,0.035 3.098,0.048 C -0.385,2.804 0.057,0.833 0,0 m 10.566,-15.199 -9.694,9.4 c 0,0 1.609,0.815 2.013,1.115 0.405,0.301 2.82,1.638 1.819,6.764 C 3.702,7.207 -0.462,7.671 -3.885,7.211 -7.308,6.752 -10.669,6.21 -10.669,6.21 l 3.432,-23.987 4.804,0.699 -1.639,9.793 9.084,-8.828 z" /></g><g
           transform="translate(414.6948,198.4243)"
           id="g364"><path
             id="path366"
             style="fill:#2b4581;fill-opacity:1;fill-rule:nonzero;stroke:none"
             d="m 0,0 -14.298,1.226 -2.082,-24.106 14.296,-1.263 c 0,0 0.502,4.217 0.314,4.291 -0.19,0.073 -9.305,0.692 -9.329,0.925 -0.024,0.232 0.501,6.437 0.501,6.437 l 9.449,-0.777 0.381,4.131 -9.406,0.963 0.501,4.781 9.279,-0.713 z" /></g><g
           transform="translate(395.8831,200.0643)"
           id="g368"><path
             id="path370"
             style="fill:#2b4581;fill-opacity:1;fill-rule:nonzero;stroke:none"
             d="m 0,0 -19.216,-20.857 -2.446,28.285 c 0,0 4.819,-1.551 4.819,-1.667 0,-0.116 1.272,-15.882 1.272,-15.882 l 10.91,11.796 z" /></g><g
           transform="translate(365.7798,212.7643)"
           id="g372"><path
             id="path374"
             style="fill:#2b4581;fill-opacity:1;fill-rule:nonzero;stroke:none"
             d="m 0,0 -12.298,-20.846 4.28,-2.553 c 0,0 12.626,20.808 12.307,20.995 C 3.97,-2.217 0,0 0,0" /></g><g
           transform="translate(358.9236,216.9741)"
           id="g376"><path
             id="path378"
             style="fill:#2b4581;fill-opacity:1;fill-rule:nonzero;stroke:none"
             d="m 0,0 -3.445,3.098 -10.198,-10.842 -1.551,24.35 -17.848,-18.85 3.393,-3.122 10.292,10.793 1.488,-24.291 z" /></g><g
           transform="translate(336.0353,242.4664)"
           id="g380"><path
             id="path382"
             style="fill:#2b4581;fill-opacity:1;fill-rule:nonzero;stroke:none"
             d="m 0,0 -13.59,-7.572 c -2.654,-1.314 -5.36,-0.457 -6.661,1.923 l -0.656,1.198 c -1.191,2.179 -0.546,4.739 2.04,6.297 l 13.609,7.694 -2.505,4.24 c 0,0 -7.932,-4.572 -14.047,-8.021 -3.987,-2.248 -5.513,-7.225 -3.473,-11.323 l 1.403,-2.816 c 1.237,-1.74 3.265,-4.294 6.344,-4.728 2.11,-0.296 4.673,0.458 7.517,1.949 l 12.356,6.821 z" /></g><g
           transform="translate(318.2924,266.8412)"
           id="g384"><path
             id="path386"
             style="fill:#2b4581;fill-opacity:1;fill-rule:nonzero;stroke:none"
             d="m 0,0 c 0,-2.049 -1.661,-3.71 -3.71,-3.71 -2.049,0 -3.71,1.661 -3.71,3.71 0,2.049 1.661,3.71 3.71,3.71 C -1.661,3.71 0,2.049 0,0" /></g></g></g></g></svg>